<?xml version="1.0" encoding="utf-8"?>
<!-- Generator: Adobe Illustrator 21.1.0, SVG Export Plug-In . SVG Version: 6.00 Build 0)  -->
<svg version="1.1" id="Capa_1" xmlns="http://www.w3.org/2000/svg" xmlns:xlink="http://www.w3.org/1999/xlink" x="0px" y="0px"
	 viewBox="0 0 74.9 64" style="enable-background:new 0 0 74.9 64;" xml:space="preserve">
<style type="text/css">
	.st0{fill:#FF1B2B;}
</style>
<path class="st0" d="M69.1,0H5.8C2.6,0,0,2.6,0,5.8v33.5v6.2c0,3.2,2.6,5.8,5.8,5.8h21.1l-1.6,8.4h-4.7c-1.2,0-2.2,1-2.2,2.2
	s1,2.2,2.2,2.2h6.5h20.6h6.5c1.2,0,2.2-1,2.2-2.2s-1-2.2-2.2-2.2h-4.7L48,51.3h21.1c3.2,0,5.8-2.6,5.8-5.8v-6.2V5.8
	C74.9,2.6,72.3,0,69.1,0z M5.8,4.3h63.3c0.8,0,1.4,0.6,1.4,1.4v31.4H4.3V5.8C4.3,5,5,4.3,5.8,4.3z M37.4,9
	c-7.1,0-12.8,5.7-12.8,12.8s5.7,12.8,12.8,12.8s12.8-5.7,12.8-12.8S44.5,9,37.4,9z M44.6,19.8l-6.1,7.5c-0.4,0.5-1.1,0.8-1.7,0.8
	c-0.4,0-0.9-0.1-1.3-0.4L30.6,24c-1-0.7-1.2-2.1-0.5-3c0.7-1,2.1-1.2,3-0.5l3.3,2.4l4.8-5.9c0.8-0.9,2.1-1.1,3-0.3
	C45.2,17.5,45.4,18.8,44.6,19.8z"/>
</svg>
