<?xml version="1.0" encoding="utf-8"?>
<!-- Generator: Adobe Illustrator 21.1.0, SVG Export Plug-In . SVG Version: 6.00 Build 0)  -->
<svg version="1.1" id="Capa_1" xmlns="http://www.w3.org/2000/svg" xmlns:xlink="http://www.w3.org/1999/xlink" x="0px" y="0px"
	 viewBox="0 0 74.9 64" style="enable-background:new 0 0 74.9 64;" xml:space="preserve">
<style type="text/css">
	.st0{fill:#FF1B2B;}
</style>
<g>
	<g id="Apps">
		<path class="st0" d="M17.4,0h-8c-2.2,0-4,1.8-4,4v8c0,2.2,1.8,4,4,4h8c2.2,0,4-1.8,4-4V4C21.4,1.8,19.6,0,17.4,0z M17.4,12h-8V4h8
			V12z"/>
		<path class="st0" d="M41.4,0h-8c-2.2,0-4,1.8-4,4v8c0,2.2,1.8,4,4,4h8c2.2,0,4-1.8,4-4V4C45.4,1.8,43.6,0,41.4,0z M41.4,12h-8V4h8
			V12z"/>
		<path class="st0" d="M65.4,0h-8c-2.2,0-4,1.8-4,4v8c0,2.2,1.8,4,4,4h8c2.2,0,4-1.8,4-4V4C69.4,1.8,67.6,0,65.4,0z M65.4,12h-8V4h8
			V12z"/>
		<path class="st0" d="M17.4,24h-8c-2.2,0-4,1.8-4,4v8c0,2.2,1.8,4,4,4h8c2.2,0,4-1.8,4-4v-8C21.4,25.8,19.6,24,17.4,24z M17.4,36
			h-8v-8h8V36z"/>
		<path class="st0" d="M41.4,24h-8c-2.2,0-4,1.8-4,4v8c0,2.2,1.8,4,4,4h8c2.2,0,4-1.8,4-4v-8C45.4,25.8,43.6,24,41.4,24z M41.4,36
			h-8v-8h8V36z"/>
		<path class="st0" d="M65.4,24h-8c-2.2,0-4,1.8-4,4v8c0,2.2,1.8,4,4,4h8c2.2,0,4-1.8,4-4v-8C69.4,25.8,67.6,24,65.4,24z M65.4,36
			h-8v-8h8V36z"/>
		<path class="st0" d="M17.4,48h-8c-2.2,0-4,1.8-4,4v8c0,2.2,1.8,4,4,4h8c2.2,0,4-1.8,4-4v-8C21.4,49.8,19.6,48,17.4,48z M17.4,60
			h-8v-8h8V60z"/>
		<path class="st0" d="M41.4,48h-8c-2.2,0-4,1.8-4,4v8c0,2.2,1.8,4,4,4h8c2.2,0,4-1.8,4-4v-8C45.4,49.8,43.6,48,41.4,48z M41.4,60
			h-8v-8h8V60z"/>
		<path class="st0" d="M65.4,48h-8c-2.2,0-4,1.8-4,4v8c0,2.2,1.8,4,4,4h8c2.2,0,4-1.8,4-4v-8C69.4,49.8,67.6,48,65.4,48z M65.4,60
			h-8v-8h8V60z"/>
	</g>
</g>
</svg>
