<?xml version="1.0" encoding="utf-8"?>
<!-- Generator: Adobe Illustrator 21.1.0, SVG Export Plug-In . SVG Version: 6.00 Build 0)  -->
<svg version="1.1" id="Capa_1" xmlns="http://www.w3.org/2000/svg" xmlns:xlink="http://www.w3.org/1999/xlink" x="0px" y="0px"
	 viewBox="0 0 74.9 64" style="enable-background:new 0 0 74.9 64;" xml:space="preserve">
<style type="text/css">
	.st0{fill:#FF1B2B;}
</style>
<g>
	<g id="Info">
		<g>
			<path class="st0" d="M37.4,16c-2.2,0-4,1.8-4,4s1.8,4,4,4s4-1.8,4-4S39.6,16,37.4,16z M37.4,28c-2.2,0-4,1.8-4,4v12
				c0,2.2,1.8,4,4,4s4-1.8,4-4V32C41.4,29.8,39.6,28,37.4,28z M37.4,0c-17.6,0-32,14.4-32,32s14.4,32,32,32s32-14.4,32-32
				S55.1,0,37.4,0z M37.4,58c-14.3,0-26-11.7-26-26s11.7-26,26-26c14.3,0,26,11.7,26,26S51.8,58,37.4,58z"/>
		</g>
	</g>
</g>
</svg>
