<?xml version="1.0" encoding="utf-8"?>
<!-- Generator: Adobe Illustrator 22.0.1, SVG Export Plug-In . SVG Version: 6.00 Build 0)  -->
<svg version="1.1" id="Capa_1" xmlns="http://www.w3.org/2000/svg" xmlns:xlink="http://www.w3.org/1999/xlink" x="0px" y="0px"
	 viewBox="0 0 180.4 165" style="enable-background:new 0 0 180.4 165;" xml:space="preserve">
<style type="text/css">
	.st0{fill:#FFFFFF;}
</style>
<path class="st0" d="M100,0C79.1,0,61.8,15.1,58.2,35H35.4l-10-30H0v15h14.6l35.8,107.5c-6.2,3.4-10.4,10-10.4,17.5c0,11,9,20,20,20
	s20-9,20-20c0-1.7-0.2-3.4-0.7-5h46.3c-0.4,1.6-0.7,3.3-0.7,5c0,11,9,20,20,20s20-9,20-20s-9-20-20-20H65.4l-5-15h95l25-75h-38.6
	C138.2,15.1,120.9,0,100,0z M145,135c5.5,0,10,4.5,10,10s-4.5,10-10,10s-10-4.5-10-10S139.5,135,145,135z M100,10
	c17.9,0,32.5,14.6,32.5,32.5S117.9,75,100,75S67.5,60.4,67.5,42.5S82.1,10,100,10z M70,145c0,5.5-4.5,10-10,10s-10-4.5-10-10
	s4.5-10,10-10S70,139.5,70,145z M144.6,95H55.4l-15-45h17.8c3.6,19.9,20.9,35,41.8,35s38.2-15.1,41.8-35h17.8L144.6,95z"/>
<polygon class="st0" points="92.5,65 107.5,65 107.5,50 122.5,50 122.5,35 107.5,35 107.5,20 92.5,20 92.5,35 77.5,35 77.5,50 
	92.5,50 "/>
</svg>
