<?xml version="1.0" encoding="utf-8"?>
<!-- Generator: Adobe Illustrator 21.1.0, SVG Export Plug-In . SVG Version: 6.00 Build 0)  -->
<svg version="1.1" id="Capa_1" xmlns="http://www.w3.org/2000/svg" xmlns:xlink="http://www.w3.org/1999/xlink" x="0px" y="0px"
	 viewBox="0 0 94.9 87.2" style="enable-background:new 0 0 94.9 87.2;" xml:space="preserve">
<style type="text/css">
	.st0{fill:#FF0000;}
</style>
<g>
	<path class="st0" d="M94.2,14.2c-0.6-0.8-1.5-1.2-2.5-1.2H23.5L21.2,2.5C20.9,1,19.6,0,18.1,0H3.2C1.4,0,0,1.4,0,3.2
		s1.4,3.2,3.2,3.2h12.4l13,59.4c0.3,1.5,1.6,2.5,3.1,2.5h50.5c1.8,0,3.2-1.4,3.2-3.2s-1.4-3.2-3.2-3.2H34.3l-1.6-7.3h51.1
		c1.5,0,2.8-1,3.1-2.5l8-35.2C95,16,94.8,15,94.2,14.2z"/>
	<circle class="st0" cx="75.6" cy="79.6" r="7.6"/>
	<circle class="st0" cx="38.5" cy="79.6" r="7.6"/>
</g>
</svg>
