<?xml version="1.0" encoding="utf-8"?>
<!-- Generator: Adobe Illustrator 22.0.1, SVG Export Plug-In . SVG Version: 6.00 Build 0)  -->
<svg version="1.1" id="Capa_1" xmlns="http://www.w3.org/2000/svg" xmlns:xlink="http://www.w3.org/1999/xlink" x="0px" y="0px"
	 viewBox="0 0 88 88" style="enable-background:new 0 0 88 88;" xml:space="preserve">
<style type="text/css">
	.st0{fill:#0D203E;}
</style>
<path class="st0" d="M44,0C19.7,0,0,19.7,0,44s19.7,44,44,44s44-19.7,44-44S68.3,0,44,0z M44,80C24.1,80,8,63.8,8,44S24.1,8,44,8
	c19.8,0,36,16.2,36,36S63.8,80,44,80z M57.2,25.2L44,38.3L30.8,25.2l-5.7,5.7L38.3,44L25.2,57.2l5.7,5.7L44,49.7l13.2,13.2l5.7-5.7
	L49.7,44l13.2-13.2L57.2,25.2z"/>
</svg>
