<?xml version="1.0" encoding="utf-8"?>
<!-- Generator: Adobe Illustrator 21.1.0, SVG Export Plug-In . SVG Version: 6.00 Build 0)  -->
<svg version="1.1" id="Capa_1" xmlns="http://www.w3.org/2000/svg" xmlns:xlink="http://www.w3.org/1999/xlink" x="0px" y="0px"
	 viewBox="0 0 162.9 178.3" style="enable-background:new 0 0 162.9 178.3;" xml:space="preserve">
<style type="text/css">
	.st0{fill:#0D203E;}
</style>
<path class="st0" d="M161.7,51.8c-2.6-7.8-6.8-14.2-14.2-18.4C130.7,23.6,113.9,14,97.1,4.2c-4.6-2.6-9.4-4-14.6-4.2
	c-5.8-0.2-11.2,0.8-16.2,3.8c-17,9.8-34,19.4-50.8,29.4c-10,6-15.4,15-15.4,26.8c-0.2,19.4,0,39,0,58.4c0,3,0.4,6,1.4,8.8
	c2.6,7.6,7,13.8,14,17.8c16.6,9.6,33.4,19.2,50,28.8c4.4,2.6,9,4,14,4.4c6.2,0.4,12-0.6,17.4-3.8c16.8-9.8,33.6-19.6,50.4-29.2
	c4.8-2.6,8.4-6.4,11-11c2.6-4.4,4.6-9.2,4.6-14.4c0-10.2,0-20.6,0-30.8c0-9.4,0-19.2,0-29C162.9,57.2,162.5,54.4,161.7,51.8z
	 M112.7,116c1.2,1.2,1.2,3,0,4.2c-0.6,0.6-1.4,0.8-2.2,0.8s-1.6-0.2-2.2-0.8L81.5,93.4l-26.8,26.8c-0.6,0.6-1.4,0.8-2.2,0.8
	s-1.6-0.2-2.2-0.8c-1.2-1.2-1.2-3,0-4.2l26.8-26.8L50.3,62.4c-1.2-1.2-1.2-3,0-4.2s3-1.2,4.2,0L81.3,85l26.8-26.8
	c1.2-1.2,3-1.2,4.2,0s1.2,3,0,4.2L85.5,89.2L112.7,116z"/>
</svg>
