<svg width='200' height='200' fill="#161616" xmlns="http://www.w3.org/2000/svg" xmlns:xlink="http://www.w3.org/1999/xlink" version="1.1" x="0px" y="0px" viewBox="0 0 96 96" enable-background="new 0 0 96 96" xml:space="preserve"><g><path fill="#161616" d="M66,96H32c-7.168,0-13-5.832-13-13V20h60v63C79,90.168,73.168,96,66,96z M21,22v61c0,6.065,4.935,11,11,11   h34c6.065,0,11-4.935,11-11V22H21z"></path></g><g><path fill="#161616" d="M85,22H13v-9c0-2.757,2.243-5,5-5h62c2.757,0,5,2.243,5,5V22z M15,20h68v-7c0-1.654-1.346-3-3-3H18   c-1.654,0-3,1.346-3,3V20z"></path></g><g><path fill="#161616" d="M33,84c-2.206,0-4-1.794-4-4V37c0-2.206,1.794-4,4-4s4,1.794,4,4v43C37,82.206,35.206,84,33,84z M33,35   c-1.103,0-2,0.897-2,2v43c0,1.103,0.897,2,2,2s2-0.897,2-2V37C35,35.897,34.103,35,33,35z"></path></g><g><path fill="#161616" d="M49,84c-2.206,0-4-1.794-4-4V37c0-2.206,1.794-4,4-4s4,1.794,4,4v43C53,82.206,51.206,84,49,84z M49,35   c-1.103,0-2,0.897-2,2v43c0,1.103,0.897,2,2,2s2-0.897,2-2V37C51,35.897,50.103,35,49,35z"></path></g><g><path fill="#161616" d="M65,84c-2.206,0-4-1.794-4-4V37c0-2.206,1.794-4,4-4s4,1.794,4,4v43C69,82.206,67.206,84,65,84z M65,35   c-1.103,0-2,0.897-2,2v43c0,1.103,0.897,2,2,2s2-0.897,2-2V37C67,35.897,66.103,35,65,35z"></path></g><g><path fill="#161616" d="M61,9h-2V5c0-1.654-1.346-3-3-3H42c-1.654,0-3,1.346-3,3v4h-2V5c0-2.757,2.243-5,5-5h14   c2.757,0,5,2.243,5,5V9z"></path></g></svg>