<?xml version="1.0" encoding="utf-8"?>
<!-- Generator: Adobe Illustrator 22.0.1, SVG Export Plug-In . SVG Version: 6.00 Build 0)  -->
<svg version="1.1" id="Capa_1" xmlns="http://www.w3.org/2000/svg" xmlns:xlink="http://www.w3.org/1999/xlink" x="0px" y="0px"
	 viewBox="0 0 52 52" style="enable-background:new 0 0 52 52;" xml:space="preserve">
<style type="text/css">
	.st0{fill:#FFFFFF;}
</style>
<g>
	<g>
		<path class="st0" d="M50,36h-8c-0.4,0-0.8,0.1-1.1,0.3L35.4,40H16.6l-5.5-3.7C10.8,36.1,10.4,36,10,36H2c-1.1,0-2,0.9-2,2v12
			c0,1.1,0.9,2,2,2h48c1.1,0,2-0.9,2-2V38C52,36.9,51.1,36,50,36z"/>
		<path class="st0" d="M24.6,35.4C25,35.8,25.5,36,26,36c0.5,0,1-0.2,1.4-0.6l12-12c0.6-0.6,0.7-1.4,0.4-2.2c-0.3-0.7-1-1.2-1.8-1.2
			h-4V2c0-1.1-0.9-2-2-2H20c-1.1,0-2,0.9-2,2v18h-4c-0.8,0-1.5,0.5-1.8,1.2c-0.3,0.7-0.1,1.6,0.4,2.2L24.6,35.4z"/>
	</g>
</g>
</svg>
