<?xml version="1.0" encoding="utf-8"?>
<!-- Generator: Adobe Illustrator 21.1.0, SVG Export Plug-In . SVG Version: 6.00 Build 0)  -->
<svg version="1.1" id="Capa_1" xmlns="http://www.w3.org/2000/svg" xmlns:xlink="http://www.w3.org/1999/xlink" x="0px" y="0px"
	 viewBox="0 0 200 200" style="enable-background:new 0 0 200 200;" xml:space="preserve">
<style type="text/css">
	.st0{fill:#FFFFFF;}
</style>
<path class="st0" d="M195.8,162.5H4.2c-2.3,0-4.2-1.9-4.2-4.2V41.7c0-2.3,1.9-4.2,4.2-4.2h191.7c2.3,0,4.2,1.9,4.2,4.2v116.7
	C200,160.6,198.1,162.5,195.8,162.5z M8.3,154.2h183.3V45.8H8.3V154.2z"/>
<path class="st0" d="M100,121.5c-0.9,0-1.8-0.3-2.6-0.9l-75-59.2c-1.8-1.4-2.1-4.1-0.7-5.9c1.4-1.8,4-2.1,5.9-0.7l75,59.2
	c1.8,1.4,2.1,4,0.7,5.8C102.4,121,101.2,121.5,100,121.5z"/>
<path class="st0" d="M100,121.5c-1.2,0-2.5-0.5-3.3-1.6c-1.4-1.8-1.1-4.4,0.7-5.8l75-59.2c1.8-1.4,4.4-1.1,5.9,0.7
	c1.4,1.8,1.1,4.4-0.7,5.9l-75,59.2C101.8,121.2,100.9,121.5,100,121.5z"/>
<path class="st0" d="M25,144c-1.4,0-2.9-0.8-3.6-2.1c-1.2-2-0.5-4.5,1.5-5.7l58.3-33.5c2-1.2,4.5-0.5,5.7,1.5c1.1,2,0.5,4.5-1.5,5.7
	l-58.3,33.5C26.4,143.8,25.7,144,25,144L25,144z"/>
<path class="st0" d="M175,144c-0.7,0-1.4-0.2-2.1-0.5l-58.3-33.5c-2-1.2-2.7-3.7-1.5-5.7c1.1-2,3.7-2.7,5.7-1.6l58.3,33.5
	c2,1.1,2.7,3.7,1.5,5.7C177.8,143.2,176.4,144,175,144L175,144z"/>
</svg>
