<?xml version="1.0" encoding="utf-8"?>
<!-- Generator: Adobe Illustrator 21.1.0, SVG Export Plug-In . SVG Version: 6.00 Build 0)  -->
<svg version="1.1" id="Capa_1" xmlns="http://www.w3.org/2000/svg" xmlns:xlink="http://www.w3.org/1999/xlink" x="0px" y="0px"
	 viewBox="0 0 200 200" style="enable-background:new 0 0 200 200;" xml:space="preserve">
<style type="text/css">
	.st0{fill:#FFFFFF;}
</style>
<path class="st0" d="M196.4,193.3H3.6c-2,0-3.6-1.6-3.6-3.6v-42.8c0-1,0.4-1.9,1.1-2.6l63.2-63.2v-9.2c0-1,0.4-1.9,1.1-2.6
	c0.7-0.7,1.6-1.1,2.6-1.1h21.4c2,0,3.6,1.6,3.6,3.6V79h14.2v-7.1c0-2,1.6-3.6,3.6-3.6h21.4c1,0,1.9,0.4,2.6,1.1s1.1,1.6,1.1,2.6v9.2
	l63.2,63.2c0.7,0.7,1.1,1.6,1.1,2.6v42.8C200,191.7,198.4,193.3,196.4,193.3z M7.2,186.1h185.5v-37.7l-63.2-63.2
	c-0.7-0.7-1.1-1.6-1.1-2.6v-7.1h-14.2v7.1c0,2-1.6,3.6-3.6,3.6H89.3c-2,0-3.6-1.6-3.6-3.6v-7.1H71.5v7.1c0,1-0.4,1.9-1.1,2.6
	L7.2,148.3V186.1z"/>
<path class="st0" d="M100,150.5c-13.8,0-25-11.2-25-25s11.2-25,25-25s25,11.2,25,25S113.8,150.5,100,150.5z M100,107.6
	c-9.8,0-17.8,8-17.8,17.8s8,17.8,17.8,17.8s17.8-8,17.8-17.8S109.8,107.6,100,107.6z"/>
<path class="st0" d="M196.4,86.2h-48.2c-2,0-3.6-1.6-3.6-3.6V58.5c-1.1-2.9-17.4-8.4-44.6-8.4s-43.5,5.6-44.6,8.6l0,24
	c0,2-1.6,3.6-3.6,3.6H3.6c-2,0-3.6-1.6-3.6-3.6V58.5C0,35.2,46.1,6.7,100,6.7s100,28.5,100,51.8v24.1
	C200,84.6,198.4,86.2,196.4,86.2z M151.8,79h41V58.5c0-17.6-41.6-44.6-92.8-44.6S7.2,40.9,7.2,58.5V79h41V58.5
	c0-12.4,32.6-15.7,51.8-15.7s51.8,3.3,51.8,15.7V79z"/>
</svg>
