<?xml version="1.0" encoding="utf-8"?>
<!-- Generator: Adobe Illustrator 21.1.0, SVG Export Plug-In . SVG Version: 6.00 Build 0)  -->
<svg version="1.1" id="Capa_1" xmlns="http://www.w3.org/2000/svg" xmlns:xlink="http://www.w3.org/1999/xlink" x="0px" y="0px"
	 viewBox="0 0 200 200" style="enable-background:new 0 0 200 200;" xml:space="preserve">
<style type="text/css">
	.st0{fill:#FFFFFF;}
</style>
<g>
	<g>
		<path class="st0" d="M100,0C58.1,0,24,34.1,24,76c0,40.8,70,119.3,73,122.7c0.8,0.8,1.8,1.3,3,1.3s2.2-0.5,3-1.3
			c3-3.3,73-81.8,73-122.7C176,34.1,141.9,0,100,0z M100,189.9C86.5,174.4,32,109.3,32,76c0-37.5,30.5-68,68-68s68,30.5,68,68
			C168,109.3,113.5,174.4,100,189.9z"/>
		<path class="st0" d="M100,40c-19.8,0-36,16.2-36,36s16.2,36,36,36c19.9,0,36-16.2,36-36S119.9,40,100,40z M100,104
			c-15.4,0-28-12.6-28-28s12.6-28,28-28c15.4,0,28,12.6,28,28S115.4,104,100,104z"/>
	</g>
</g>
</svg>
