<?xml version="1.0" encoding="utf-8"?>
<!-- Generator: Adobe Illustrator 21.1.0, SVG Export Plug-In . SVG Version: 6.00 Build 0)  -->
<svg version="1.1"
	 id="Capa_1" xmlns:cc="http://creativecommons.org/ns#" xmlns:dc="http://purl.org/dc/elements/1.1/" xmlns:inkscape="http://www.inkscape.org/namespaces/inkscape" xmlns:rdf="http://www.w3.org/1999/02/22-rdf-syntax-ns#" xmlns:sodipodi="http://sodipodi.sourceforge.net/DTD/sodipodi-0.dtd" xmlns:svg="http://www.w3.org/2000/svg"
	 xmlns="http://www.w3.org/2000/svg" xmlns:xlink="http://www.w3.org/1999/xlink" x="0px" y="0px" viewBox="0 0 172 172"
	 style="enable-background:new 0 0 172 172;" xml:space="preserve">
<style type="text/css">
	.st0{fill:#FFFFFF;}
</style>
<g transform="translate(0,-952.36218)">
	<path class="st0" d="M86,952.4c-47.5,0-86,38.5-86,86s38.5,86,86,86s86-38.5,86-86C172,990.9,133.5,952.4,86,952.4z M24,998.4
		c42.7,0,85.4,0,124,0c0,27.2,0,55.4,0,80c-43,0-87.1,0-124,0C24,1050.9,24,1022.4,24,998.4z M39.2,1006.4L86,1044l46.8-37.6H39.2z
		 M32,1010.9v55.9l38.2-25.3L32,1010.9z M140,1010.9l-38.2,30.8l38.2,25.2V1010.9z M76.7,1046.9l-35.6,23.5h89.9l-35.6-23.5
		c-3.1,2.5-6.2,5-9.3,7.5C82.9,1051.9,79.8,1049.4,76.7,1046.9z"/>
</g>
</svg>
