<?xml version="1.0" encoding="utf-8"?>
<!-- Generator: Adobe Illustrator 21.1.0, SVG Export Plug-In . SVG Version: 6.00 Build 0)  -->
<svg version="1.1"
	 id="Capa_1" xmlns:cc="http://creativecommons.org/ns#" xmlns:dc="http://purl.org/dc/elements/1.1/" xmlns:inkscape="http://www.inkscape.org/namespaces/inkscape" xmlns:rdf="http://www.w3.org/1999/02/22-rdf-syntax-ns#" xmlns:sodipodi="http://sodipodi.sourceforge.net/DTD/sodipodi-0.dtd" xmlns:svg="http://www.w3.org/2000/svg"
	 xmlns="http://www.w3.org/2000/svg" xmlns:xlink="http://www.w3.org/1999/xlink" x="0px" y="0px" viewBox="0 0 172 172"
	 style="enable-background:new 0 0 172 172;" xml:space="preserve">
<style type="text/css">
	.st0{fill:#FFFFFF;}
</style>
<g>
	<path class="st0" d="M86,0c47.5,0,86,38.5,86,86c0,47.5-38.5,86-86,86c-47.5,0-86-38.5-86-86C0,38.5,38.5,0,86,0L86,0z M75.9,60.2
		l5.4-2.8c1.2-5.5-8-30.9-15-36.8l-5.3,2.7c2,6.8,4.3,13.3,7,19.7C70.3,48.9,73,54.6,75.9,60.2L75.9,60.2z M122.1,143.1l5.9-3
		c-3.3-15.3-17.6-33.1-20.7-33.9l-6.3,3.2c2.9,5.7,6,11.3,9.4,16.8C114,131.9,117.8,137.6,122.1,143.1L122.1,143.1z M111.9,148.3
		l5.5-2.8c-4.1-5.4-7.9-11-11.4-16.6c-3.5-5.6-6.6-11.3-9.5-17.2l-8.1,4.2C78.2,100.6,69.7,84.3,63,66.7l8.3-4.2
		c-3-5.7-5.7-11.6-8.2-17.5c-2.6-6.2-4.9-12.7-6.9-19.3l-5.5,2.8c-9.3,4.9-13.4,11.4-12.3,19.3l0.1,0.3l-0.1,0
		c0.4,1.9,0.8,3.8,1.2,5.7l0,0.1l0,0c7.5,33.1,23.2,62,44.8,87.9c0.1,0.2,0.1,0.4,0.2,0.5c1.4,1.6,2.8,3.1,4.3,4.7
		C94.8,152.5,102.4,153,111.9,148.3z"/>
</g>
</svg>
