<?xml version="1.0" encoding="utf-8"?>
<!-- Generator: Adobe Illustrator 21.1.0, SVG Export Plug-In . SVG Version: 6.00 Build 0)  -->
<svg version="1.1" id="Capa_1" xmlns="http://www.w3.org/2000/svg" xmlns:xlink="http://www.w3.org/1999/xlink" x="0px" y="0px"
	 viewBox="0 0 40.5 40.8" style="enable-background:new 0 0 40.5 40.8;" xml:space="preserve">
<style type="text/css">
	.st0{fill:#FFFFFF;}
	.st1{fill:#FEFEFE;}
</style>
<g>
	<g>
		<ellipse transform="matrix(0.7957 -0.6058 0.6058 0.7957 -7.609 4.6103)" class="st0" cx="3" cy="13.6" rx="0.6" ry="0.6"/>
		<ellipse transform="matrix(0.7957 -0.6058 0.6058 0.7957 -6.9247 6.6594)" class="st0" cx="6.4" cy="13.6" rx="0.6" ry="0.6"/>
		<ellipse transform="matrix(0.7957 -0.6058 0.6058 0.7957 -6.2404 8.7084)" class="st0" cx="9.8" cy="13.6" rx="0.6" ry="0.6"/>
		<ellipse transform="matrix(0.7957 -0.6058 0.6058 0.7957 -5.5561 10.7574)" class="st0" cx="13.2" cy="13.6" rx="0.6" ry="0.6"/>
		<ellipse transform="matrix(0.7957 -0.6058 0.6058 0.7957 -4.8719 12.8065)" class="st0" cx="16.5" cy="13.6" rx="0.6" ry="0.6"/>
		<ellipse transform="matrix(0.7957 -0.6058 0.6058 0.7957 -4.1876 14.8555)" class="st0" cx="19.9" cy="13.6" rx="0.6" ry="0.6"/>
		<ellipse transform="matrix(0.7957 -0.6058 0.6058 0.7957 -3.5033 16.9046)" class="st0" cx="23.3" cy="13.6" rx="0.6" ry="0.6"/>
		<ellipse transform="matrix(0.7957 -0.6058 0.6058 0.7957 -2.8191 18.9536)" class="st0" cx="26.7" cy="13.7" rx="0.6" ry="0.6"/>
	</g>
	<g>
		<ellipse transform="matrix(0.7957 -0.6058 0.6058 0.7957 -9.6222 5.2895)" class="st0" cx="3" cy="16.9" rx="0.6" ry="0.6"/>
		<ellipse transform="matrix(0.7957 -0.6058 0.6058 0.7957 -8.9379 7.3385)" class="st0" cx="6.4" cy="16.9" rx="0.6" ry="0.6"/>
		<ellipse transform="matrix(0.7957 -0.6058 0.6058 0.7957 -8.2536 9.3875)" class="st0" cx="9.8" cy="16.9" rx="0.6" ry="0.6"/>
		<ellipse transform="matrix(0.7957 -0.6058 0.6058 0.7957 -7.5694 11.4366)" class="st0" cx="13.2" cy="16.9" rx="0.6" ry="0.6"/>
		<ellipse transform="matrix(0.7957 -0.6058 0.6058 0.7957 -6.8851 13.4856)" class="st0" cx="16.5" cy="16.9" rx="0.6" ry="0.6"/>
		<ellipse transform="matrix(0.7957 -0.6058 0.6058 0.7957 -6.2008 15.5347)" class="st0" cx="19.9" cy="17" rx="0.6" ry="0.6"/>
		<ellipse transform="matrix(0.7957 -0.6058 0.6058 0.7957 -5.5166 17.5837)" class="st0" cx="23.3" cy="17" rx="0.6" ry="0.6"/>
		<ellipse transform="matrix(0.7957 -0.6058 0.6058 0.7957 -4.8323 19.6328)" class="st0" cx="26.7" cy="17" rx="0.6" ry="0.6"/>
	</g>
	<g>
		<ellipse transform="matrix(0.7957 -0.6058 0.6058 0.7957 -11.6354 5.9686)" class="st0" cx="3" cy="20.2" rx="0.6" ry="0.6"/>
		<ellipse transform="matrix(0.7957 -0.6058 0.6058 0.7957 -10.9511 8.0177)" class="st0" cx="6.4" cy="20.2" rx="0.6" ry="0.6"/>
		<ellipse transform="matrix(0.7957 -0.6058 0.6058 0.7957 -10.2669 10.0667)" class="st0" cx="9.8" cy="20.3" rx="0.6" ry="0.6"/>
		<ellipse transform="matrix(0.7957 -0.6058 0.6058 0.7957 -9.5826 12.1157)" class="st0" cx="13.2" cy="20.3" rx="0.6" ry="0.6"/>
		<ellipse transform="matrix(0.7957 -0.6058 0.6058 0.7957 -8.8983 14.1648)" class="st0" cx="16.5" cy="20.3" rx="0.6" ry="0.6"/>
		<ellipse transform="matrix(0.7957 -0.6058 0.6058 0.7957 -8.2141 16.2138)" class="st0" cx="19.9" cy="20.3" rx="0.6" ry="0.6"/>
		<ellipse transform="matrix(0.7957 -0.6058 0.6058 0.7957 -7.5298 18.2629)" class="st0" cx="23.3" cy="20.3" rx="0.6" ry="0.6"/>
		<ellipse transform="matrix(0.7957 -0.6058 0.6058 0.7957 -6.8455 20.3119)" class="st0" cx="26.7" cy="20.3" rx="0.6" ry="0.6"/>
	</g>
	<ellipse transform="matrix(0.7957 -0.6058 0.6058 0.7957 -13.6486 6.6478)" class="st0" cx="3" cy="23.6" rx="0.6" ry="0.6"/>
	<ellipse transform="matrix(0.7957 -0.6058 0.6058 0.7957 -12.9644 8.6968)" class="st0" cx="6.4" cy="23.6" rx="0.6" ry="0.6"/>
	<ellipse transform="matrix(0.7957 -0.6058 0.6058 0.7957 -12.2801 10.7458)" class="st0" cx="9.8" cy="23.6" rx="0.6" ry="0.6"/>
	<ellipse transform="matrix(0.7957 -0.6058 0.6058 0.7957 -11.5958 12.7949)" class="st0" cx="13.2" cy="23.6" rx="0.6" ry="0.6"/>
	<ellipse transform="matrix(0.7957 -0.6058 0.6058 0.7957 -10.9116 14.8439)" class="st0" cx="16.5" cy="23.6" rx="0.6" ry="0.6"/>
	<ellipse transform="matrix(0.7957 -0.6058 0.6058 0.7957 -10.2273 16.893)" class="st0" cx="19.9" cy="23.6" rx="0.6" ry="0.6"/>
	<ellipse transform="matrix(0.7957 -0.6058 0.6058 0.7957 -9.543 18.942)" class="st0" cx="23.3" cy="23.6" rx="0.6" ry="0.6"/>
	<ellipse transform="matrix(0.7957 -0.6058 0.6058 0.7957 -8.8588 20.9911)" class="st0" cx="26.7" cy="23.6" rx="0.6" ry="0.6"/>
	<ellipse transform="matrix(0.7957 -0.6058 0.6058 0.7957 -15.6619 7.3269)" class="st0" cx="3" cy="26.9" rx="0.6" ry="0.6"/>
	<ellipse transform="matrix(0.7957 -0.6058 0.6058 0.7957 -14.9776 9.376)" class="st0" cx="6.4" cy="26.9" rx="0.6" ry="0.6"/>
	<ellipse transform="matrix(0.7957 -0.6058 0.6058 0.7957 -14.2933 11.425)" class="st0" cx="9.8" cy="26.9" rx="0.6" ry="0.6"/>
	<ellipse transform="matrix(0.7957 -0.6058 0.6058 0.7957 -13.6091 13.474)" class="st0" cx="13.2" cy="26.9" rx="0.6" ry="0.6"/>
	<ellipse transform="matrix(0.7957 -0.6058 0.6058 0.7957 -12.9248 15.5231)" class="st0" cx="16.5" cy="26.9" rx="0.6" ry="0.6"/>
	<ellipse transform="matrix(0.7957 -0.6058 0.6058 0.7957 -12.2405 17.5721)" class="st0" cx="19.9" cy="26.9" rx="0.6" ry="0.6"/>
	<ellipse transform="matrix(0.7957 -0.6058 0.6058 0.7957 -11.5562 19.6212)" class="st0" cx="23.3" cy="26.9" rx="0.6" ry="0.6"/>
	<ellipse transform="matrix(0.7957 -0.6058 0.6058 0.7957 -10.872 21.6702)" class="st0" cx="26.7" cy="26.9" rx="0.6" ry="0.6"/>
	<ellipse transform="matrix(0.7957 -0.6058 0.6058 0.7957 -17.6751 8.0061)" class="st0" cx="3" cy="30.2" rx="0.6" ry="0.6"/>
	<ellipse transform="matrix(0.7957 -0.6058 0.6058 0.7957 -16.9908 10.0551)" class="st0" cx="6.4" cy="30.2" rx="0.6" ry="0.6"/>
	<ellipse transform="matrix(0.7957 -0.6058 0.6058 0.7957 -16.3066 12.1041)" class="st0" cx="9.8" cy="30.2" rx="0.6" ry="0.6"/>
	<ellipse transform="matrix(0.7957 -0.6058 0.6058 0.7957 -15.6223 14.1532)" class="st0" cx="13.2" cy="30.2" rx="0.6" ry="0.6"/>
	<ellipse transform="matrix(0.7957 -0.6058 0.6058 0.7957 -14.938 16.2022)" class="st0" cx="16.5" cy="30.2" rx="0.6" ry="0.6"/>
	<ellipse transform="matrix(0.7957 -0.6058 0.6058 0.7957 -14.2537 18.2513)" class="st0" cx="19.9" cy="30.3" rx="0.6" ry="0.6"/>
	<ellipse transform="matrix(0.7957 -0.6058 0.6058 0.7957 -13.5695 20.3003)" class="st0" cx="23.3" cy="30.3" rx="0.6" ry="0.6"/>
	<ellipse transform="matrix(0.7957 -0.6058 0.6058 0.7957 -12.8852 22.3494)" class="st0" cx="26.7" cy="30.3" rx="0.6" ry="0.6"/>
	<ellipse transform="matrix(0.7957 -0.6058 0.6058 0.7957 -8.1863 22.9845)" class="st0" cx="30" cy="23.6" rx="0.6" ry="0.6"/>
	<ellipse transform="matrix(0.7957 -0.6058 0.6058 0.7957 -10.1995 23.6636)" class="st0" cx="30" cy="26.9" rx="0.6" ry="0.6"/>
	<ellipse transform="matrix(0.7957 -0.6058 0.6058 0.7957 -12.2127 24.3428)" class="st0" cx="30" cy="30.3" rx="0.6" ry="0.6"/>
	<ellipse transform="matrix(0.7957 -0.6058 0.6058 0.7957 -7.5138 24.9779)" class="st0" cx="33.3" cy="23.6" rx="0.6" ry="0.6"/>
	<ellipse transform="matrix(0.7957 -0.6058 0.6058 0.7957 -9.5271 25.657)" class="st0" cx="33.3" cy="26.9" rx="0.6" ry="0.6"/>
	<ellipse transform="matrix(0.7957 -0.6058 0.6058 0.7957 -11.5403 26.3362)" class="st0" cx="33.3" cy="30.3" rx="0.6" ry="0.6"/>
</g>
<path class="st1" d="M39.8,11.8c0-0.3-0.2-0.5-0.5-0.6c-1-0.2-1.3-1-0.7-1.9c0.1-0.1,0.2-0.3,0.1-0.4c-0.2-0.4-0.6-0.8-1-1
	c-0.1-0.1-0.2,0-0.3,0.1c-0.1,0.1-0.1,0.1-0.2,0.2c-0.7,0.4-1.5,0.1-1.7-0.7c-0.1-0.6-0.2-0.6-0.8-0.7c-0.1,0-0.3,0-0.4,0
	c-0.4,0-0.6,0.1-0.6,0.6c-0.2,0.9-0.9,1.2-1.7,0.8c-0.6-0.3-0.6-0.3-1.1,0.2c-0.1,0.1-0.2,0.2-0.3,0.3c-0.2,0.3-0.2,0.5,0,0.8
	c0.6,0.8,0.2,1.7-0.8,1.8c-0.4,0.1-0.5,0.2-0.5,0.6c0,0.2,0,0.4,0,0.6c0,0.4,0.2,0.6,0.6,0.7c0.9,0.2,1.2,1,0.8,1.7
	c-0.3,0.5-0.3,0.5,0.1,1c0.1,0.1,0.2,0.2,0.4,0.4c0.2,0.2,0.5,0.2,0.7,0c0.8-0.6,1.7-0.2,1.9,0.8c0.1,0.4,0.3,0.5,0.7,0.5
	c0.2,0,0.4,0,0.6,0c0.3,0,0.5-0.2,0.5-0.5c0.2-1,1-1.3,1.9-0.8c0.2,0.1,0.4,0.2,0.7,0c0.1-0.1,0.2-0.3,0.3-0.4
	c0.4-0.5,0.5-0.5,0.1-1.1c-0.5-0.7,0.1-1.7,0.8-1.7c0.5-0.1,0.5-0.1,0.6-0.7C39.8,12.2,39.8,12,39.8,11.8z M34.6,15.5
	c-1.8,0-3.3-1.5-3.3-3.3c0-1.8,1.5-3.3,3.3-3.3c1.8,0,3.3,1.5,3.3,3.3C37.9,14,36.4,15.5,34.6,15.5z"/>
<path class="st1" d="M33,18.3c-0.1-0.2-0.2-0.2-0.3-0.2c-0.5,0.1-0.8-0.2-0.7-0.7c0-0.1,0.1-0.2,0-0.2c-0.2-0.1-0.4-0.2-0.6-0.3
	c-0.1,0-0.1,0-0.1,0.1c0,0,0,0.1-0.1,0.1c-0.3,0.3-0.7,0.3-0.9,0c-0.2-0.2-0.2-0.3-0.5-0.2c-0.1,0-0.1,0-0.2,0.1
	c-0.2,0.1-0.2,0.2-0.2,0.4c0.1,0.4-0.2,0.7-0.6,0.7c-0.4,0-0.4,0-0.5,0.3c0,0.1-0.1,0.1-0.1,0.2c0,0.2,0,0.3,0.2,0.4
	c0.4,0.3,0.4,0.7,0,1C28,19.9,28,20,28,20.2c0,0.1,0.1,0.2,0.1,0.3c0.1,0.2,0.2,0.2,0.4,0.2c0.4-0.1,0.7,0.2,0.7,0.7
	c0,0.3,0,0.3,0.2,0.4c0.1,0,0.2,0.1,0.2,0.1c0.2,0.1,0.3,0,0.4-0.1c0.3-0.4,0.7-0.4,1,0c0.1,0.2,0.2,0.2,0.4,0.1
	c0.1,0,0.2-0.1,0.3-0.1c0.1-0.1,0.2-0.2,0.2-0.3c-0.1-0.5,0.2-0.8,0.7-0.7c0.1,0,0.2,0,0.3-0.1c0-0.1,0.1-0.2,0.1-0.2
	c0.1-0.3,0.1-0.3-0.1-0.5c-0.4-0.2-0.2-0.8,0.1-1c0.2-0.1,0.2-0.2,0.1-0.4C33,18.4,33,18.4,33,18.3z M31.2,20.9
	c-0.9,0.3-1.8-0.1-2.2-1c-0.3-0.9,0.1-1.8,1-2.2c0.9-0.3,1.8,0.1,2.2,1C32.5,19.6,32,20.6,31.2,20.9z"/>
<circle class="st1" cx="30.6" cy="19.4" r="0.9"/>
<circle class="st1" cx="34.6" cy="12.2" r="1.6"/>
<path class="st0" d="M35.1,16.1v15c0,0.6-0.5,1.2-1.2,1.2H2.4c-0.6,0-1.2-0.5-1.2-1.2V12.8c0-0.6,0.5-1.2,1.2-1.2h28.5
	c0-0.2,0.1-0.5,0.2-0.7H2.4c-1,0-1.9,0.8-1.9,1.9v18.3c0,1,0.8,1.9,1.9,1.9h31.5c1,0,1.9-0.8,1.9-1.9V16
	C35.5,16.1,35.3,16.1,35.1,16.1z"/>
</svg>
