<?xml version="1.0" encoding="utf-8"?>
<!-- Generator: Adobe Illustrator 21.1.0, SVG Export Plug-In . SVG Version: 6.00 Build 0)  -->
<svg version="1.1" id="Capa_1" xmlns="http://www.w3.org/2000/svg" xmlns:xlink="http://www.w3.org/1999/xlink" x="0px" y="0px"
	 viewBox="0 0 47.7 47.7" style="enable-background:new 0 0 47.7 47.7;" xml:space="preserve">
<style type="text/css">
	.st0{fill:#FFFFFF;}
</style>
<g>
	<path class="st0" d="M6.7,30.2c0-2.5,0-4.8,0-7.3c-0.2,0.2-0.4,0.3-0.6,0.4c-0.5,0.3-0.9,0.3-1.3-0.1c-1.5-1.5-3-3-4.5-4.5
		c-0.5-0.5-0.4-1.1,0.2-1.6C4,14.5,7.5,12,10.9,9.4c4-3,8-5.9,12-8.9c0.9-0.7,1-0.7,1.9,0c3.1,2.3,6.3,4.7,9.4,7
		c0.2,0.1,0.3,0.2,0.6,0.4c0-0.7,0-1.2,0-1.8c0-0.5,0-1.1,0-1.6c0-0.7,0.4-1,1.1-1c1.9,0,3.8,0,5.7,0c0.8,0,1.1,0.3,1.1,1.1
		c0,2.9,0,5.7,0,8.6c0,0.3,0.1,0.6,0.4,0.8c1.4,1,2.7,2,4.1,3c0.7,0.5,0.8,1.1,0.1,1.7c-1.4,1.4-2.7,2.7-4.1,4.1
		c-0.7,0.7-1,0.7-1.8,0.1c-0.1-0.1-0.2-0.1-0.3-0.2c0,0.2,0,0.3,0,0.5c0,2.5,0,4.9,0,7.4c0,0.3,0.1,0.5,0.4,0.6
		c2.5,1.2,3,4.4,0.9,6.2c-3.4,2.9-6.8,5.8-10.3,8.7c-1.2,1-2.5,1.4-4,1.4c-4.4,0-8.7,0-13.1,0c-0.3,0-0.6-0.1-0.8-0.1
		c-1.3-0.5-2.7-0.9-4-1.4c-0.3,1.2-1.2,1.6-2.3,1.6c-1.9,0-3.8,0-5.7,0c-1.3,0-2-0.8-2-2c0-4.5,0-8.9,0-13.4c0-1.3,0.8-2,2.1-2.1
		C3.6,30.2,5.1,30.2,6.7,30.2z M39.1,31c0-0.2,0-0.4,0-0.6c0-2.3,0-4.7,0-7c0-0.7,0.2-1.4-0.1-2c-0.3-0.5-1-0.8-1.5-1.2
		c-4.4-3.3-8.8-6.6-13.3-9.9c-0.2-0.2-0.4-0.3-0.7-0.1c-4.9,3.7-9.8,7.3-14.7,11c-0.1,0.1-0.2,0.3-0.2,0.5c0,2.7,0,5.4,0,8.2
		c0,0.1,0.1,0.3,0.2,0.3c0.7,0.3,1.2,0.8,1.3,1.6c0.2,0,0.4,0,0.6,0c2,0,4,0,6,0c1.3,0,2.6,0.3,3.7,1c2.1,1.4,4.3,2.8,6.4,4.3
		c1.4,0.9,1.7,2.7,0.9,4.1c-0.8,1.4-2.5,1.9-4,1.2c-0.8-0.4-1.5-0.7-2.3-1.1c-1-0.5-2-0.9-2.9-1.4c-0.5-0.3-0.7-0.8-0.5-1.3
		c0.2-0.5,0.7-0.6,1.3-0.4c0.1,0,0.2,0.1,0.3,0.1c1.6,0.8,3.2,1.5,4.8,2.3c0.7,0.4,1.4,0.2,1.7-0.4c0.4-0.6,0.2-1.3-0.5-1.7
		c-2-1.3-4-2.7-6-4c-0.9-0.6-1.8-0.9-2.8-0.8c-2,0-4.1,0-6.1,0c-0.2,0-0.3,0-0.5,0c0,0.1,0,0.2,0,0.2c0,3.3,0,6.6,0,9.9
		c0,0.3,0.2,0.4,0.4,0.5c1.4,0.5,2.7,1,4.1,1.4c0.2,0.1,0.4,0.1,0.6,0.1c4.3,0,8.5,0,12.8,0c1.2,0,2.2-0.4,3.1-1.2
		c3.3-2.8,6.6-5.5,9.8-8.3c1-0.8,1.1-2,0.4-2.8c-0.7-0.9-1.9-0.9-2.8-0.1c-1.6,1.3-3.2,2.7-4.9,4.1c-1.1,0.9-2.1,1.8-3.2,2.6
		c-0.3,0.3-0.7,0.3-1.1,0.1c-0.4-0.2-0.6-0.5-0.4-0.9c0.1-0.3,0.3-0.6,0.6-0.8c2.3-2,4.7-3.9,7.1-5.9C37.3,31.9,38,31.2,39.1,31z
		 M5.6,21.3C5.8,21.1,6,21,6.1,20.9c5.6-4.2,11.3-8.4,16.9-12.6c0.7-0.5,1-0.5,1.7,0c5.6,4.2,11.3,8.4,16.9,12.6
		c0.2,0.1,0.3,0.2,0.5,0.3c1.1-1.1,2.1-2.1,3.2-3.2C38.1,12.7,31,7.4,23.8,2.1C16.7,7.4,9.5,12.8,2.4,18.1
		C3.5,19.1,4.6,20.2,5.6,21.3z M8.2,45.8c0-4.6,0-9.1,0-13.7c-0.7,0-1.5,0-2.2,0c0,1.2,0,2.3,0,3.4c0,1.2,0,2.3,0,3.5
		c0,0.4-0.2,0.7-0.6,0.9c-0.4,0.1-0.8,0.1-1-0.3c-0.2-0.2-0.3-0.6-0.3-0.9c0-2,0-4.1,0-6.1c0-0.2,0-0.3,0-0.5c-0.8,0-1.4,0-2.1,0
		c0,4.6,0,9.2,0,13.7C4,45.8,6.1,45.8,8.2,45.8z M40.7,12.3c0-2.4,0-4.6,0-6.9c-1.4,0-2.7,0-4,0c0,1.3,0,2.5,0,3.7
		c0,0.1,0.1,0.2,0.1,0.2C38.1,10.4,39.4,11.3,40.7,12.3z"/>
	<path class="st0" d="M26.2,17.9c0,4,0,7.9,0,11.9c-1.1,0-2.1,0-3.2,0c0-3,0-5.9,0-8.9c-0.7,0.2-1.3,0.3-2,0.4
		c-0.2-0.9-0.4-1.7-0.6-2.5C22.3,18,24.6,17.7,26.2,17.9z"/>
</g>
</svg>
