<?xml version="1.0" encoding="utf-8"?>
<!-- Generator: Adobe Illustrator 21.1.0, SVG Export Plug-In . SVG Version: 6.00 Build 0)  -->
<svg version="1.1" id="Capa_1" xmlns="http://www.w3.org/2000/svg" xmlns:xlink="http://www.w3.org/1999/xlink" x="0px" y="0px"
	 viewBox="0 0 17.7 17.8" style="enable-background:new 0 0 17.7 17.8;" xml:space="preserve">
<style type="text/css">
	.st0{fill:#FFFFFF;}
</style>
<g>
	<g>
		<path class="st0" d="M10.3,2.2c0.1-0.1,0.2-0.1,0.2-0.1c0.3-0.3,0.7-0.7,1-1c0.1-0.1,0.1-0.3,0-0.4c-0.1-0.1-0.3-0.1-0.4,0
			c-0.4,0.3-0.7,0.7-1.1,1.1C10,1.7,10,1.9,10,2C10.1,2.1,10.2,2.2,10.3,2.2z"/>
		<path class="st0" d="M7.9,1.9c0-0.1,0-0.2-0.1-0.2C7.5,1.3,7.1,1,6.7,0.6c-0.1-0.1-0.3-0.1-0.4,0C6.3,0.7,6.3,1,6.3,1
			C6.7,1.4,7,1.8,7.4,2.1c0.1,0.1,0.2,0.1,0.3,0C7.8,2.1,7.8,2,7.9,1.9z"/>
		<path class="st0" d="M8.6,1c0,0.2,0,0.5,0,0.7c0,0.2,0.1,0.4,0.3,0.3c0.2,0,0.3-0.1,0.3-0.3c0-0.5,0-0.9,0-1.4
			C9.2,0.1,9.1,0,8.9,0C8.7,0,8.6,0.1,8.6,0.3C8.6,0.6,8.6,0.8,8.6,1z"/>
		<path class="st0" d="M10,6.7c0,0.4,0,0.8,0,1.1C10,8,9.9,8.1,9.8,8.2c-0.1,0-0.2,0-0.3-0.1c-0.1,0-0.1-0.2-0.1-0.3
			c0-0.3,0-0.6,0-0.9c0-0.2,0-0.2-0.2-0.2c-0.2,0-0.3,0-0.5,0c-0.1,0-0.2,0.1-0.2,0.2c0,0.3,0,0.6,0,0.9c0,0.2-0.1,0.4-0.3,0.4
			C8,8.2,7.9,8.1,7.9,7.8c0-0.3,0-0.6,0-0.9c0-0.1,0-0.2-0.2-0.2c-0.4,0-0.5-0.1-0.5-0.5c0-0.7,0-1.5,0-2.2c0-0.9,0.6-1.6,1.4-1.7
			c1-0.1,1.8,0.4,1.9,1.3c0,0.1,0,0.3,0,0.4c0,0.7,0,1.4,0,2C10.6,6.7,10.6,6.7,10,6.7z M10,4.9c0-0.3,0-0.6,0-0.9
			c0-0.6-0.6-1.1-1-1.1c-0.6,0-1.1,0.4-1.2,1c0,0.7,0,1.3,0,2c0,0.1,0,0.2,0.2,0.2c0.6,0,1.2,0,1.8,0C10,6.1,10,6,10,5.9
			C10,5.6,10,5.2,10,4.9z"/>
		<path class="st0" d="M10.3,2.2C10.2,2.2,10.1,2.1,10,2c0-0.1,0-0.3,0-0.3c0.3-0.4,0.7-0.7,1.1-1.1c0.1-0.1,0.3-0.1,0.4,0
			c0.1,0.1,0.1,0.3,0,0.4c-0.3,0.3-0.7,0.7-1,1C10.5,2.1,10.4,2.2,10.3,2.2z"/>
		<path class="st0" d="M7.9,1.9C7.8,2,7.8,2.1,7.7,2.1c-0.1,0-0.3,0-0.3,0C7,1.8,6.7,1.4,6.3,1c-0.1-0.1,0-0.3,0-0.4
			c0.1-0.1,0.3-0.1,0.4,0C7.1,1,7.5,1.3,7.8,1.7C7.9,1.7,7.9,1.8,7.9,1.9z"/>
		<path class="st0" d="M8.6,1c0-0.2,0-0.5,0-0.7C8.6,0.1,8.7,0,8.9,0c0.2,0,0.3,0.1,0.3,0.3c0,0.5,0,0.9,0,1.4
			c0,0.2-0.1,0.3-0.3,0.3C8.8,2.1,8.6,2,8.6,1.7C8.6,1.5,8.6,1.3,8.6,1z"/>
		<path class="st0" d="M9.8,4c0,0.1-0.1,0.2-0.2,0.2C9.4,4.2,9.3,4.1,9.2,4c0-0.2-0.1-0.3-0.3-0.3c-0.1,0-0.2-0.1-0.2-0.3
			c0-0.1,0.1-0.2,0.2-0.2C9.3,3.1,9.8,3.5,9.8,4z"/>
	</g>
	<path class="st0" d="M17.6,9.3l-2.1-2.7c0,0,0,0-0.1-0.1c0,0,0,0,0,0l-4.5-2v0.5l3.9,1.7l-1.8,1L9,10.1L4.9,7.8l-1.8-1l3.8-1.7V4.7
		L2.5,6.6c0,0,0,0,0,0c0,0,0,0,0,0c0,0,0,0,0,0c0,0,0,0,0,0c0,0,0,0,0,0c0,0,0,0,0,0L0,9.6C0,9.7,0,9.7,0,9.8c0,0.1,0.1,0.1,0.1,0.1
		l2.2,1.2V14c0,0.1,0,0.2,0.1,0.2l6.4,3.6c0,0,0.1,0,0.1,0c0,0,0.1,0,0.1,0l6.4-3.6c0.1,0,0.1-0.1,0.1-0.2v-3.1l2-1.2
		c0.1,0,0.1-0.1,0.1-0.1C17.7,9.5,17.7,9.4,17.6,9.3z M2.6,7.1l0.2,0.1v0l3.5,2l2,1.2l-2,2.5L0.6,9.7L2.6,7.1z M2.8,11.4l3.5,1.9
		c0,0,0.1,0,0.1,0c0.1,0,0.1,0,0.2-0.1l2.2-2.7l0,0v6.6l-6-3.3V11.4z M15.2,13.8l-6,3.3v-6.6l0.1,0l2.1,2.7c0,0.1,0.1,0.1,0.2,0.1
		c0,0,0.1,0,0.1,0l3.5-2.2V13.8z M11.6,12.8l-2-2.5l1-0.6l4.2-2.3l0,0l0.3-0.2l0,0v0l0.2-0.1l0.3,0.3l0,0l1.5,2L11.6,12.8z"/>
</g>
</svg>
