<?xml version="1.0" encoding="utf-8"?>
<!-- Generator: Adobe Illustrator 21.1.0, SVG Export Plug-In . SVG Version: 6.00 Build 0)  -->
<svg version="1.1" id="Capa_1" xmlns="http://www.w3.org/2000/svg" xmlns:xlink="http://www.w3.org/1999/xlink" x="0px" y="0px"
	 viewBox="0 0 40.5 40.8" style="enable-background:new 0 0 40.5 40.8;" xml:space="preserve">
<style type="text/css">
	.st0{fill:#FFFFFF;}
</style>
<g>
	<g>
		<path class="st0" d="M23.6,5.1C23.8,5,24,4.9,24.2,4.8C25,4,25.7,3.2,26.5,2.4c0.3-0.3,0.3-0.7,0-1c-0.3-0.3-0.7-0.3-1,0
			c-0.8,0.8-1.6,1.6-2.4,2.4C23,4,22.9,4.4,23,4.6C23.1,4.8,23.4,4.9,23.6,5.1z"/>
		<path class="st0" d="M18.1,4.4C18,4.1,18,4,17.9,3.9c-0.8-0.8-1.6-1.7-2.5-2.4c-0.3-0.2-0.7-0.3-0.9,0.1c-0.1,0.2-0.2,0.7,0,0.9
			c0.8,0.9,1.6,1.7,2.4,2.5C17.1,5,17.5,5,17.7,4.9C17.9,4.8,18,4.5,18.1,4.4z"/>
		<path class="st0" d="M19.8,2.4c0,0.5,0,1.1,0,1.6c0,0.5,0.3,0.8,0.7,0.8c0.4,0,0.7-0.3,0.7-0.8c0-1.1,0-2.1,0-3.2
			c0-0.5-0.3-0.8-0.7-0.8c-0.4,0-0.7,0.3-0.7,0.8C19.8,1.3,19.8,1.8,19.8,2.4z"/>
		<path class="st0" d="M23,15.5c0,0.9,0,1.7,0,2.6c0,0.2-0.2,0.6-0.4,0.7c-0.2,0.1-0.5,0-0.8-0.1c-0.1-0.1-0.2-0.4-0.2-0.6
			c0-0.7,0-1.4,0-2.1c0-0.4-0.1-0.5-0.5-0.5c-0.4,0-0.8,0-1.2,0c-0.3,0-0.5,0.1-0.4,0.5c0,0.7,0,1.4,0,2.1c0,0.5-0.2,0.8-0.7,0.8
			c-0.5,0-0.7-0.3-0.7-0.8c0-0.7,0-1.4,0-2.1c0-0.3-0.1-0.4-0.4-0.5c-1-0.1-1.1-0.2-1.1-1.2c0-1.7,0-3.4,0-5.1c0-2,1.5-3.6,3.3-3.8
			c2.2-0.2,4,1,4.5,3.1c0.1,0.3,0.1,0.6,0.1,0.9c0,1.6,0,3.1,0,4.7C24.4,15.3,24.4,15.3,23,15.5z M23,11.3c0-0.7,0-1.4,0-2.1
			c0.1-1.5-1.3-2.5-2.4-2.5c-1.5,0-2.6,1-2.7,2.4c0,1.5,0,3,0,4.5c0,0.3,0.1,0.4,0.4,0.4c1.4,0,2.8,0,4.2,0c0.3,0,0.4-0.2,0.4-0.4
			C23,12.8,23,12,23,11.3z"/>
		<path class="st0" d="M23.6,5.1c-0.2-0.2-0.5-0.3-0.6-0.5C22.9,4.4,23,4,23.1,3.8c0.8-0.8,1.6-1.6,2.4-2.4c0.3-0.3,0.7-0.2,1,0
			c0.3,0.3,0.3,0.7,0,1C25.7,3.2,25,4,24.2,4.8C24,4.9,23.8,5,23.6,5.1z"/>
		<path class="st0" d="M18.1,4.4c-0.1,0.2-0.2,0.5-0.4,0.5C17.5,5,17.1,5,16.9,4.8c-0.9-0.8-1.7-1.6-2.4-2.5c-0.1-0.2-0.1-0.6,0-0.9
			c0.2-0.3,0.6-0.3,0.9-0.1c0.9,0.8,1.7,1.6,2.5,2.4C18,4,18,4.1,18.1,4.4z"/>
		<path class="st0" d="M19.8,2.4c0-0.5,0-1,0-1.6c0-0.5,0.3-0.8,0.7-0.8c0.4,0,0.7,0.3,0.7,0.8c0,1.1,0,2.1,0,3.2
			c0,0.5-0.3,0.8-0.7,0.8c-0.4,0-0.7-0.3-0.7-0.8C19.8,3.4,19.8,2.9,19.8,2.4z"/>
		<path class="st0" d="M22.4,9.2c0,0.2-0.2,0.4-0.6,0.5c-0.3,0-0.6-0.1-0.7-0.5c-0.1-0.5-0.3-0.7-0.8-0.8c-0.3,0-0.6-0.3-0.5-0.6
			c0.1-0.2,0.3-0.5,0.5-0.5C21.4,7.1,22.5,8.1,22.4,9.2z"/>
	</g>
	<path class="st0" d="M40.4,21.4l-4.8-6.2c0-0.1-0.1-0.1-0.2-0.1c0,0,0,0,0,0l-10.3-4.5v1.1l8.9,3.9L30,17.9l-9.4,5.2l-9.4-5.2
		L7,15.6l8.7-3.8v-1.1L5.7,15.1c0,0,0,0,0,0c0,0,0,0,0,0c0,0,0,0,0,0c0,0-0.1,0.1-0.1,0.1c0,0,0,0,0,0c0,0,0,0,0,0L0.1,22
		C0,22.1,0,22.3,0,22.4c0,0.1,0.1,0.3,0.3,0.3l5.1,2.8V32c0,0.2,0.1,0.4,0.3,0.5l14.7,8.2c0.1,0,0.1,0.1,0.2,0.1s0.2,0,0.2-0.1
		l14.7-8.2c0.2-0.1,0.3-0.3,0.3-0.5v-7.1l4.5-2.8c0.1-0.1,0.2-0.2,0.3-0.3C40.6,21.7,40.5,21.5,40.4,21.4z M5.9,16.2l0.4,0.3v0
		l8.1,4.5l4.7,2.7l-4.7,5.8L1.3,22.2L5.9,16.2z M6.4,26.1l8,4.4c0.1,0,0.1,0.1,0.2,0.1c0.1,0,0.3-0.1,0.4-0.2l5-6.2l0.1,0v15.1
		L6.4,31.7V26.1z M34.8,31.7l-13.7,7.7V24.2l0.1-0.1l4.9,6.2c0.1,0.1,0.2,0.2,0.4,0.2c0.1,0,0.2,0,0.2-0.1l8-4.9V31.7z M26.7,29.4
		l-4.6-5.8l2.3-1.3L34,17l0,0l0.8-0.4l0,0v0l0.4-0.2l0.6,0.7l0,0l3.5,4.5L26.7,29.4z"/>
</g>
</svg>
