<?xml version="1.0" encoding="utf-8"?>
<!-- Generator: Adobe Illustrator 21.1.0, SVG Export Plug-In . SVG Version: 6.00 Build 0)  -->
<svg version="1.1" id="Capa_1" xmlns="http://www.w3.org/2000/svg" xmlns:xlink="http://www.w3.org/1999/xlink" x="0px" y="0px"
	 viewBox="0 0 30 22.8" style="enable-background:new 0 0 30 22.8;" xml:space="preserve">
<style type="text/css">
	.st0{fill:#FFFFFF;}
</style>
<g>
	<g>
		<path class="st0" d="M24.2,4.9c-0.2-0.7-1-1.1-1.7-0.9c-0.7,0.2-1.1,1-0.8,1.7c0.1,0.2,0.1,0.3,0,0.5c-1.2,1.4-2.3,2.9-3.5,4.3
			c-0.1,0.1-0.2,0.2-0.4,0.1c-0.3-0.1-0.6,0-0.9,0.1c-0.1,0.1-0.3,0-0.4,0c-0.9-0.7-1.9-1.3-2.8-2c-0.1-0.1-0.2-0.2-0.2-0.4
			c-0.1-0.7-0.7-1.3-1.4-1.2c-0.7,0.1-1.3,0.7-1.2,1.4c0,0.2-0.1,0.3-0.2,0.5c-0.8,0.6-1.7,1.1-2.5,1.7c-0.2,0.1-0.3,0.1-0.5,0
			c-0.5-0.2-1-0.2-1.4,0.2c-0.4,0.4-0.5,0.8-0.4,1.4c0.2,0.6,0.8,1.1,1.4,1c0.7-0.1,1.2-0.6,1.2-1.3c0-0.3,0.1-0.4,0.3-0.6
			c0.8-0.5,1.6-1.1,2.5-1.6c0.2-0.1,0.3-0.1,0.5,0c0.5,0.3,1,0.2,1.4-0.1c0.2-0.2,0.3-0.1,0.5,0c0.8,0.6,1.7,1.2,2.5,1.7
			c0.2,0.1,0.4,0.3,0.3,0.5c0,0.6,0.3,1.1,0.8,1.3c0.5,0.2,1,0.1,1.4-0.2c0.4-0.4,0.6-0.9,0.4-1.5c-0.1-0.2,0-0.3,0.1-0.5
			c1.2-1.4,2.3-2.9,3.5-4.3c0.1-0.1,0.2-0.2,0.4-0.2c0.2,0,0.4,0,0.5,0C24,6.4,24.5,5.6,24.2,4.9z M7,12.5c-0.3,0-0.6-0.3-0.6-0.6
			c0-0.3,0.3-0.6,0.6-0.6c0.3,0,0.6,0.3,0.6,0.6C7.5,12.3,7.3,12.5,7,12.5z M12.2,9.1c-0.3,0-0.6-0.3-0.6-0.6c0-0.3,0.3-0.6,0.6-0.6
			c0.3,0,0.6,0.2,0.6,0.6C12.7,8.8,12.5,9.1,12.2,9.1z M17.5,12.5c-0.3,0-0.6-0.3-0.6-0.6c0-0.3,0.3-0.6,0.6-0.6
			c0.3,0,0.6,0.3,0.6,0.6C18.1,12.3,17.8,12.6,17.5,12.5z M22.9,5.8c-0.3,0-0.6-0.3-0.6-0.6c0-0.3,0.3-0.6,0.6-0.6
			c0.3,0,0.6,0.3,0.6,0.6C23.5,5.6,23.2,5.9,22.9,5.8z"/>
	</g>
	<g>
		<path class="st0" d="M0,1v16.1c0,0.5,0.4,1,1,1h28c0.5,0,1-0.4,1-1V1c0-0.5-0.4-1-1-1H1C0.4,0,0,0.4,0,1z M27.4,16.6H2.6
			c-0.6,0-1.1-0.5-1.1-1.1V2.6C1.5,2,2,1.5,2.6,1.5h24.8c0.6,0,1.1,0.5,1.1,1.1v12.9C28.5,16.1,28,16.6,27.4,16.6z"/>
		<rect x="13.7" y="17.1" class="st0" width="2.4" height="5.7"/>
		<path class="st0" d="M21.2,22.8H8.7c-0.2,0-0.4-0.2-0.4-0.4v-1.7c0-0.2,0.2-0.4,0.4-0.4h12.5c0.2,0,0.4,0.2,0.4,0.4v1.7
			C21.7,22.6,21.5,22.8,21.2,22.8z"/>
	</g>
</g>
</svg>
