<?xml version="1.0" encoding="utf-8"?>
<!-- Generator: Adobe Illustrator 21.1.0, SVG Export Plug-In . SVG Version: 6.00 Build 0)  -->
<svg version="1.1" id="Capa_1" xmlns="http://www.w3.org/2000/svg" xmlns:xlink="http://www.w3.org/1999/xlink" x="0px" y="0px"
	 viewBox="0 0 40.5 40.8" style="enable-background:new 0 0 40.5 40.8;" xml:space="preserve">
<style type="text/css">
	.st0{fill:#FFFFFF;}
</style>
<g>
	<path class="st0" d="M40.6,24.7c-0.3,0.7-0.9,1-1.7,1c-0.9,0-1.8,0-2.7,0c-0.3,0-0.5,0.1-0.8,0.3c-1.5,1.1-3.1,2-4.8,2.8
		c-2.1,0.9-4.2,1.5-6.4,1.8c-0.7,0.1-1.5,0.2-2.3,0.3c0,0.6,0,1.2,0,1.8c0.1,0,0.3,0,0.4,0c1.9,0,3.7,0,5.6,0c0.6,0,0.8,0.1,0.8,0.8
		c0,1.3,0,2.5,0,3.8c0,0.6-0.2,0.7-0.7,0.7c-4.6,0-9.2,0-13.8,0c-0.6,0-0.7-0.1-0.7-0.7c0-1.3,0-2.5,0-3.8c0-0.6,0.1-0.7,0.7-0.7
		c1.8,0,3.6,0,5.4,0c0.3,0,0.4-0.1,0.4-0.4c0-0.5,0-0.9,0-1.4c-0.4,0-0.8,0-1.2-0.1c-2.8-0.2-5.5-0.8-8.1-1.8
		c-2.1-0.8-4.2-1.8-6.1-3c-0.2-0.1-0.5-0.2-0.7-0.2c-0.6,0-1.1,0-1.7,0c-0.7,0-1.3-0.2-1.7-1c0-0.1,0-0.3,0-0.4
		c0-0.2,0.1-0.3,0.1-0.5c0.5-2.3,0.9-4.7,1.4-7c0.5-2.5,1-5.1,1.5-7.6C3.7,7.6,4,5.9,4.3,4.3c0.1-0.7,0.5-1.1,1.2-1.2
		c0.2,0,0.3,0,0.5,0c9.3,0,18.6,0,28,0c0.3,0,0.6,0,0.8,0.1c0.4,0.1,0.7,0.4,0.8,0.9c0.3,1.1,0.5,2.2,0.8,3.3
		c0.7,2.9,1.4,5.7,2.1,8.6c0.5,2,1,4.1,1.5,6.1c0.2,0.7,0.4,1.5,0.6,2.2C40.6,24.4,40.6,24.6,40.6,24.7z M2.2,24.2
		c12.2,0,24.4,0,36.6,0c0-0.1,0-0.2-0.1-0.3c-0.7-3-1.5-5.9-2.2-8.9c-0.8-3.4-1.7-6.7-2.5-10.1c-0.1-0.3-0.2-0.3-0.5-0.3
		c-9,0-17.9,0-26.9,0c-0.1,0-0.1,0-0.2,0c-0.2,0-0.2,0.1-0.3,0.2C5.5,7.5,5,10.3,4.4,13.1c-0.5,2.7-1.1,5.4-1.6,8.2
		C2.6,22.2,2.4,23.2,2.2,24.2z M6.3,25.7C6.3,25.7,6.3,25.7,6.3,25.7c0.3,0.2,0.6,0.4,0.9,0.6c2.1,1.1,4.3,2,6.6,2.6
		c1.9,0.5,3.8,0.8,5.8,0.9c2.6,0.1,5.2-0.2,7.8-0.9c1.9-0.6,3.7-1.4,5.5-2.4c0.4-0.2,0.7-0.4,1.1-0.7c0,0,0,0,0-0.1
		C24.7,25.7,15.5,25.7,6.3,25.7z"/>
	<path class="st0" d="M14.5,18.2c0,0.1,0,0.2,0,0.3c0,1.3,0,2.6,0,3.9c0,0.3-0.1,0.3-0.3,0.3c-3.3,0-6.7,0-10,0c-0.1,0-0.2,0-0.3,0
		c0.2-0.6,0.3-1.2,0.5-1.8c0.2-0.8,0.5-1.6,0.7-2.4c0.1-0.2,0.2-0.3,0.4-0.3c2.9,0,5.8,0,8.7,0C14.3,18.2,14.4,18.2,14.5,18.2z"/>
	<path class="st0" d="M26.6,22.7c0-1.5,0-3,0-4.5c0.1,0,0.2,0,0.3,0c2.8,0,5.7,0,8.5,0c0.2,0,0.3,0,0.3,0.2c0.4,1.4,0.8,2.9,1.2,4.3
		C33.5,22.7,30,22.7,26.6,22.7z"/>
	<path class="st0" d="M14.5,16.6c-3.2,0-6.4,0-9.6,0c0.2-0.7,0.4-1.4,0.6-2.1c0.2-0.7,0.4-1.4,0.6-2.1C6.2,12.2,6.3,12,6.5,12
		c2.5,0,5.1,0,7.6,0c0.3,0,0.4,0.1,0.4,0.3C14.5,13.8,14.5,15.2,14.5,16.6z"/>
	<path class="st0" d="M16.4,6c2.8,0,5.5,0,8.3,0c0,0.1,0,0.2,0,0.3c0,1.3,0,2.6,0,3.9c0,0.3-0.1,0.3-0.3,0.3c-2.6,0-5.1,0-7.7,0
		c-0.2,0-0.3,0-0.3-0.3c0-1.4,0-2.8,0-4.2C16.4,6.1,16.4,6.1,16.4,6z"/>
	<path class="st0" d="M20.6,22.8c-1.3,0-2.5,0-3.8,0c-0.2,0-0.3-0.1-0.3-0.3c0-1.3,0-2.6,0-3.9c0-0.3,0.1-0.3,0.3-0.3
		c2.6,0,5.1,0,7.7,0c0.2,0,0.3,0.1,0.3,0.3c0,1.3,0,2.6,0,4c0,0.2-0.1,0.3-0.3,0.3C23.1,22.7,21.8,22.8,20.6,22.8z"/>
	<path class="st0" d="M35.6,16.6c-3,0-6,0-9.1,0c0-0.1,0-0.3,0-0.4c0-1.3,0-2.6,0-3.8c0-0.2,0.1-0.3,0.3-0.3c2.4,0,4.8,0,7.2,0
		c0.2,0,0.3,0,0.4,0.2c0.4,1.4,0.8,2.8,1.2,4.2C35.6,16.5,35.6,16.6,35.6,16.6z"/>
	<path class="st0" d="M24.7,16.6c-2.8,0-5.5,0-8.3,0c0-0.1,0-0.2,0-0.3c0-1.3,0-2.6,0-3.9c0-0.3,0.1-0.3,0.3-0.3c2.5,0,5.1,0,7.6,0
		c0.3,0,0.4,0.1,0.4,0.4C24.7,13.8,24.7,15.2,24.7,16.6z"/>
	<path class="st0" d="M14.5,6c0,0.1,0,0.1,0,0.2c0,1.4,0,2.7,0,4.1c0,0.2-0.1,0.3-0.3,0.3c-2.6,0-5.2,0-7.8,0c-0.1,0-0.1,0-0.3,0
		c0.1-0.5,0.2-0.9,0.4-1.3c0.3-1,0.6-2,0.9-3C7.5,6,7.5,6,7.7,6c2.2,0,4.4,0,6.6,0C14.3,6,14.4,6,14.5,6z"/>
	<path class="st0" d="M26.5,6c0.1,0,0.2,0,0.3,0c2,0,3.9,0,5.9,0c0.2,0,0.3,0,0.4,0.2c0.4,1.4,0.8,2.7,1.1,4.1c0,0.1,0,0.2,0,0.3
		c-0.1,0-0.2,0-0.3,0c-2.4,0-4.7,0-7.1,0c-0.3,0-0.4-0.1-0.4-0.4c0-1.3,0-2.6,0-3.9C26.5,6.2,26.5,6.1,26.5,6z"/>
</g>
</svg>
