<?xml version="1.0" encoding="utf-8"?>
<!-- Generator: Adobe Illustrator 22.0.1, SVG Export Plug-In . SVG Version: 6.00 Build 0)  -->
<svg version="1.1" id="Capa_1" xmlns="http://www.w3.org/2000/svg" xmlns:xlink="http://www.w3.org/1999/xlink" x="0px" y="0px"
	 viewBox="0 0 500 500" style="enable-background:new 0 0 500 500;" xml:space="preserve">
<style type="text/css">
	.st0{fill:#FFC42E;}
</style>
<g>
	<path class="st0" d="M197.4,433.6c0-7.1,0-14.1,0-21.2c0.1-8-0.7-15.4-4.4-23.2c-3.5-7.3-3-16.7-3.3-25.2c-0.2-4.8-1.6-7.1-5.8-9.4
		c-43.7-23.9-69.6-60.5-75.2-110c-7.3-63.9,26.1-122.5,85.5-147.4c54.1-22.7,105.3-14.5,150.1,23.7c35.7,30.5,52,70.6,48.6,117.2
		c-3.8,52.1-29.7,91.1-75.7,116.3c-4.4,2.4-6,4.8-6,9.8c-0.1,8,0.8,17.2-2.8,23.7c-5.2,9.6-4.9,19-5,28.8c-0.1,15.2,0,30.3,0,45.5
		c-0.1,19-11.6,30.6-30.6,30.7c-15,0.1-30,0.1-45,0c-18.7-0.2-30.2-11.8-30.3-30.5C197.3,452.9,197.4,443.3,197.4,433.6z
		 M250.1,386.8c9.3,0,18.6,0.1,27.9,0c7.9-0.1,11.7-3.9,11.8-11.8c0.1-7.6,0-15.2,0-22.8c0-5.3,2.2-9.3,7.3-11.5
		c1.9-0.8,3.7-1.7,5.6-2.6c62.8-29,88.4-108.4,54.2-168.6c-32.6-57.5-101.2-78.8-160.8-50s-84.8,104.2-54.6,163.2
		c13.2,25.8,32.8,44.9,59.4,56.6c7.4,3.2,10.6,8,10.1,16c-0.4,6.5-0.1,13.1-0.1,19.7c0.1,8,3.8,11.7,11.7,11.8
		C231.8,386.9,240.9,386.8,250.1,386.8z M218.7,429.2c11.5,0,22.5-0.1,33.5,0c7.4,0.1,12.1,4.4,12.1,10.6s-4.7,10.4-12.1,10.7
		c-4.3,0.2-8.6,0-12.9,0c-6.8,0-13.6,0-20.8,0c0,4.6-0.1,8.3,0,12.1c0.2,6.5,2.6,8.9,9.3,8.9c14.6,0,29.3,0,43.9,0
		c8.3,0,10.5-2.2,10.5-10.3c0-16,0-32,0-48.1c0-1.5-0.2-3-0.3-4.7c-21.2,0-42.1,0-63.2,0C218.7,415.4,218.7,421.9,218.7,429.2z"/>
	<path class="st0" d="M239.8,31.1c0-4.8-0.2-9.6,0-14.5c0.3-6.3,4.7-10.6,10.4-10.6s10.3,4.3,10.5,10.6c0.2,9.8,0.2,19.6,0,29.4
		c-0.1,6.3-4.7,10.6-10.4,10.6c-5.7,0-10.2-4.3-10.5-10.5C239.7,41.1,239.8,36.1,239.8,31.1z"/>
	<path class="st0" d="M105.7,64.3c3.8,2.1,6.9,3,9,5c6.3,5.9,12.4,12,18.3,18.2c4.8,5,4.9,11.5,0.6,15.7c-4.3,4.2-10.3,4.2-15.3-0.4
		c-6.5-6.1-12.8-12.5-19-19c-3.2-3.4-4.7-7.8-2.1-11.8C99.1,68.9,102.6,66.9,105.7,64.3z"/>
	<path class="st0" d="M362.6,96.5c2.1-3.8,3.1-6.8,5.1-8.9c5.7-6.2,11.8-12.1,17.8-18c5-4.9,11.4-5.2,15.7-1.1
		c4.5,4.3,4.4,10.8-0.6,16.1c-6,6.2-12.1,12.3-18.3,18.2c-3.5,3.3-8,5.1-12.2,2.3C367.2,103.1,365.2,99.6,362.6,96.5z"/>
	<path class="st0" d="M58.9,230.4c-3.6,0-7.2,0.1-10.8,0c-6.8-0.2-11.2-4.2-11.5-10.1c-0.3-5.7,4-10.6,10.5-11
		c7.9-0.4,15.8-0.4,23.7,0c6.5,0.4,10.4,4.9,10.2,10.7c-0.2,5.8-4.3,9.9-10.7,10.3C66.5,230.6,62.7,230.4,58.9,230.4L58.9,230.4z"/>
	<path class="st0" d="M441.7,230.4c-3.6,0-7.2,0.1-10.8,0c-6.7-0.3-11.1-4.4-11.2-10.4c-0.1-5.8,3.8-10.3,10.3-10.6
		c8-0.4,16.2-0.4,24.2,0.1c6.1,0.3,10,5,10,10.4c0,5.7-4.3,10.1-10.6,10.5C449.6,230.6,445.6,230.4,441.7,230.4L441.7,230.4z"/>
	<path class="st0" d="M253.9,134c53.6,2.3,95.4,45.4,96.3,98c0.1,7-3.8,11.8-10,12.1c-6.7,0.3-10.9-4.1-11.2-12
		c-1.1-26.1-12.1-47-33.2-62.5c-12.4-9.1-26.6-13.6-41.9-14.5c-1.7-0.1-3.5-0.1-5.2-0.4c-5.6-1-9.1-5.5-8.8-11
		c0.3-5.3,4-9.2,9.6-9.7C251.4,133.9,253.3,134,253.9,134z"/>
</g>
</svg>
