<?xml version="1.0" encoding="utf-8"?>
<!-- Generator: Adobe Illustrator 21.1.0, SVG Export Plug-In . SVG Version: 6.00 Build 0)  -->
<svg version="1.1" id="Capa_1" xmlns="http://www.w3.org/2000/svg" xmlns:xlink="http://www.w3.org/1999/xlink" x="0px" y="0px"
	 viewBox="0 0 40.5 40.8" style="enable-background:new 0 0 40.5 40.8;" xml:space="preserve">
<style type="text/css">
	.st0{fill:#FFFFFF;}
</style>
<path class="st0" d="M37,15.1L29.1,1.4c-0.1-0.2-0.4-0.4-0.6-0.5c-0.3-0.1-0.5,0-0.8,0.1L6.8,13c-0.5,0.3-0.7,0.9-0.4,1.4l4.5,7.8
	l1.2,0.7L7,14.1c-0.1-0.1,0-0.3,0.1-0.4L28.1,1.6c0,0,0.1,0,0.2,0c0,0,0.1,0,0.1,0c0.1,0,0.1,0.1,0.2,0.1l7.9,13.7
	c0,0.1,0.1,0.2,0,0.2s-0.1,0.1-0.1,0.2l-18,10.4l0.8,0.4l17.6-10.2c0.2-0.1,0.4-0.4,0.5-0.6C37.2,15.6,37.2,15.3,37,15.1z"/>
<path class="st0" d="M34.5,25.9L31,21.4c0,0-0.1-0.1-0.1-0.1c0,0,0,0,0,0l-2-0.9l-0.8,0.4l1.8,0.8l-3,1.7L20,27.2l-1.7-0.9L12,22.7
	l-1.9-1.1l1-0.4l-0.4-0.6l-1.7,0.7c0,0,0,0,0,0c0,0,0,0,0,0c0,0,0,0,0,0c0,0-0.1,0-0.1,0.1c0,0,0,0,0,0c0,0,0,0,0,0l-3.9,4.9
	C5,26.4,5,26.5,5,26.6c0,0.1,0.1,0.2,0.2,0.2l3.7,2v4.7c0,0.2,0.1,0.3,0.2,0.4l10.7,6c0.1,0,0.1,0,0.2,0c0.1,0,0.1,0,0.2,0l10.7-6
	c0.1-0.1,0.2-0.2,0.2-0.4v-5.2l3.3-2c0.1,0,0.2-0.1,0.2-0.2C34.6,26.1,34.5,26,34.5,25.9z M5.9,26.4l3.4-4.3l0.3,0.2v0l5.9,3.3
	l3.4,1.9l-3.4,4.2L5.9,26.4z M19.6,38.9l-10-5.6v-4l5.8,3.2c0.1,0,0.1,0,0.2,0c0.1,0,0.2,0,0.3-0.1l3.7-4.5l0,0V38.9z M30.3,33.3
	l-10,5.6v-11l0.1-0.1l3.6,4.5c0.1,0.1,0.2,0.1,0.3,0.1c0.1,0,0.1,0,0.2,0l5.9-3.6V33.3z M24.4,31.7l-3.3-4.2l1.7-0.9l7-3.9l0,0
	l0.6-0.3l0,0v0l0.3-0.1l0.5,0.5l2.5,3.3L24.4,31.7z"/>
<g>
	<ellipse transform="matrix(0.3765 -0.9264 0.9264 0.3765 -7.4619 17.9325)" class="st0" cx="9.6" cy="14.5" rx="0.5" ry="0.5"/>
	<ellipse transform="matrix(0.3765 -0.9264 0.9264 0.3765 -4.4406 19.382)" class="st0" cx="12.2" cy="13" rx="0.5" ry="0.5"/>
	<ellipse transform="matrix(0.3765 -0.9264 0.9264 0.3765 -1.4193 20.8315)" class="st0" cx="14.8" cy="11.5" rx="0.5" ry="0.5"/>
	<ellipse transform="matrix(0.3765 -0.9264 0.9264 0.3765 1.602 22.2809)" class="st0" cx="17.4" cy="10" rx="0.5" ry="0.5"/>
	<ellipse transform="matrix(0.3765 -0.9264 0.9264 0.3765 4.6233 23.7304)" class="st0" cx="19.9" cy="8.4" rx="0.5" ry="0.5"/>
	<ellipse transform="matrix(0.3765 -0.9264 0.9264 0.3765 7.6446 25.1799)" class="st0" cx="22.5" cy="6.9" rx="0.5" ry="0.5"/>
	<ellipse transform="matrix(0.3765 -0.9264 0.9264 0.3765 10.6659 26.6294)" class="st0" cx="25.1" cy="5.4" rx="0.5" ry="0.5"/>
	<ellipse transform="matrix(0.3765 -0.9264 0.9264 0.3765 13.6872 28.0788)" class="st0" cx="27.7" cy="3.9" rx="0.5" ry="0.5"/>
</g>
<g>
	<ellipse transform="matrix(0.3765 -0.9264 0.9264 0.3765 -8.767 20.5525)" class="st0" cx="10.9" cy="16.8" rx="0.5" ry="0.5"/>
	<ellipse transform="matrix(0.3765 -0.9264 0.9264 0.3765 -5.7457 22.0019)" class="st0" cx="13.5" cy="15.3" rx="0.5" ry="0.5"/>
	<ellipse transform="matrix(0.3765 -0.9264 0.9264 0.3765 -2.7245 23.4514)" class="st0" cx="16.1" cy="13.7" rx="0.5" ry="0.5"/>
	<ellipse transform="matrix(0.3765 -0.9264 0.9264 0.3765 0.2968 24.9009)" class="st0" cx="18.6" cy="12.2" rx="0.5" ry="0.5"/>
	<ellipse transform="matrix(0.3765 -0.9264 0.9264 0.3765 3.3181 26.3504)" class="st0" cx="21.2" cy="10.7" rx="0.5" ry="0.5"/>
	<ellipse transform="matrix(0.3765 -0.9264 0.9264 0.3765 6.3394 27.7999)" class="st0" cx="23.8" cy="9.2" rx="0.5" ry="0.5"/>
	<ellipse transform="matrix(0.3765 -0.9264 0.9264 0.3765 9.3607 29.2493)" class="st0" cx="26.4" cy="7.7" rx="0.5" ry="0.5"/>
	<ellipse transform="matrix(0.3765 -0.9264 0.9264 0.3765 12.382 30.6988)" class="st0" cx="29" cy="6.2" rx="0.5" ry="0.5"/>
</g>
<g>
	<ellipse transform="matrix(0.3765 -0.9264 0.9264 0.3765 -10.0722 23.1724)" class="st0" cx="12.2" cy="19.1" rx="0.5" ry="0.5"/>
	<ellipse transform="matrix(0.3765 -0.9264 0.9264 0.3765 -7.0509 24.6219)" class="st0" cx="14.8" cy="17.5" rx="0.5" ry="0.5"/>
	<ellipse transform="matrix(0.3765 -0.9264 0.9264 0.3765 -4.0296 26.0714)" class="st0" cx="17.4" cy="16" rx="0.5" ry="0.5"/>
	<ellipse transform="matrix(0.3765 -0.9264 0.9264 0.3765 -1.0083 27.5209)" class="st0" cx="19.9" cy="14.5" rx="0.5" ry="0.5"/>
	<ellipse transform="matrix(0.3765 -0.9264 0.9264 0.3765 2.0129 28.9703)" class="st0" cx="22.5" cy="13" rx="0.5" ry="0.5"/>
	<ellipse transform="matrix(0.3765 -0.9264 0.9264 0.3765 5.0342 30.4198)" class="st0" cx="25.1" cy="11.5" rx="0.5" ry="0.5"/>
	<ellipse transform="matrix(0.3765 -0.9264 0.9264 0.3765 8.0555 31.8693)" class="st0" cx="27.7" cy="10" rx="0.5" ry="0.5"/>
	<ellipse transform="matrix(0.3765 -0.9264 0.9264 0.3765 11.0768 33.3188)" class="st0" cx="30.3" cy="8.4" rx="0.5" ry="0.5"/>
</g>
<g>
	<ellipse transform="matrix(0.3765 -0.9264 0.9264 0.3765 -11.3774 25.7924)" class="st0" cx="13.5" cy="21.3" rx="0.5" ry="0.5"/>
	<ellipse transform="matrix(0.3765 -0.9264 0.9264 0.3765 -8.3561 27.2419)" class="st0" cx="16.1" cy="19.8" rx="0.5" ry="0.5"/>
	<ellipse transform="matrix(0.3765 -0.9264 0.9264 0.3765 -5.3348 28.6913)" class="st0" cx="18.6" cy="18.3" rx="0.5" ry="0.5"/>
	<ellipse transform="matrix(0.3765 -0.9264 0.9264 0.3765 -2.3135 30.1408)" class="st0" cx="21.2" cy="16.8" rx="0.5" ry="0.5"/>
	<ellipse transform="matrix(0.3765 -0.9264 0.9264 0.3765 0.7078 31.5903)" class="st0" cx="23.8" cy="15.3" rx="0.5" ry="0.5"/>
	<ellipse transform="matrix(0.3765 -0.9264 0.9264 0.3765 3.7291 33.0398)" class="st0" cx="26.4" cy="13.7" rx="0.5" ry="0.5"/>
	<ellipse transform="matrix(0.3765 -0.9264 0.9264 0.3765 6.7503 34.4892)" class="st0" cx="29" cy="12.2" rx="0.5" ry="0.5"/>
	<ellipse transform="matrix(0.3765 -0.9264 0.9264 0.3765 9.7716 35.9387)" class="st0" cx="31.6" cy="10.7" rx="0.5" ry="0.5"/>
</g>
<g>
	<ellipse transform="matrix(0.3765 -0.9264 0.9264 0.3765 -12.6826 28.4123)" class="st0" cx="14.8" cy="23.6" rx="0.5" ry="0.5"/>
	<ellipse transform="matrix(0.3765 -0.9264 0.9264 0.3765 -9.6613 29.8618)" class="st0" cx="17.4" cy="22.1" rx="0.5" ry="0.5"/>
	<ellipse transform="matrix(0.3765 -0.9264 0.9264 0.3765 -6.64 31.3113)" class="st0" cx="19.9" cy="20.6" rx="0.5" ry="0.5"/>
	<ellipse transform="matrix(0.3765 -0.9264 0.9264 0.3765 -3.6187 32.7608)" class="st0" cx="22.5" cy="19.1" rx="0.5" ry="0.5"/>
	<ellipse transform="matrix(0.3765 -0.9264 0.9264 0.3765 -0.5974 34.2102)" class="st0" cx="25.1" cy="17.5" rx="0.5" ry="0.5"/>
	<ellipse transform="matrix(0.3765 -0.9264 0.9264 0.3765 2.4239 35.6597)" class="st0" cx="27.7" cy="16" rx="0.5" ry="0.5"/>
	<ellipse transform="matrix(0.3765 -0.9264 0.9264 0.3765 5.4452 37.1092)" class="st0" cx="30.3" cy="14.5" rx="0.5" ry="0.5"/>
	<ellipse transform="matrix(0.3765 -0.9264 0.9264 0.3765 8.4665 38.5587)" class="st0" cx="32.9" cy="13" rx="0.5" ry="0.5"/>
</g>
<g>
	<ellipse transform="matrix(0.3765 -0.9264 0.9264 0.3765 -10.9665 32.4818)" class="st0" cx="18.6" cy="24.4" rx="0.5" ry="0.5"/>
	<ellipse transform="matrix(0.3765 -0.9264 0.9264 0.3765 -7.9452 33.9312)" class="st0" cx="21.2" cy="22.9" rx="0.5" ry="0.5"/>
	<ellipse transform="matrix(0.3765 -0.9264 0.9264 0.3765 -4.9239 35.3807)" class="st0" cx="23.8" cy="21.3" rx="0.5" ry="0.5"/>
	<ellipse transform="matrix(0.3765 -0.9264 0.9264 0.3765 -1.9026 36.8302)" class="st0" cx="26.4" cy="19.8" rx="0.5" ry="0.5"/>
	<ellipse transform="matrix(0.3765 -0.9264 0.9264 0.3765 1.1187 38.2797)" class="st0" cx="29" cy="18.3" rx="0.5" ry="0.5"/>
	<ellipse transform="matrix(0.3765 -0.9264 0.9264 0.3765 4.14 39.7291)" class="st0" cx="31.6" cy="16.8" rx="0.5" ry="0.5"/>
	<ellipse transform="matrix(0.3765 -0.9264 0.9264 0.3765 7.1613 41.1786)" class="st0" cx="34.2" cy="15.3" rx="0.5" ry="0.5"/>
</g>
</svg>
