<?xml version="1.0" encoding="utf-8"?>
<!-- Generator: Adobe Illustrator 21.1.0, SVG Export Plug-In . SVG Version: 6.00 Build 0)  -->
<svg version="1.1" id="Capa_1" xmlns="http://www.w3.org/2000/svg" xmlns:xlink="http://www.w3.org/1999/xlink" x="0px" y="0px"
	 viewBox="0 0 40.5 40.8" style="enable-background:new 0 0 40.5 40.8;" xml:space="preserve">
<style type="text/css">
	.st0{fill:#FFFFFF;}
</style>
<g>
	<g>
		<path class="st0" d="M23.3,10.3c0.2-0.1,0.4-0.2,0.5-0.3c0.8-0.7,1.5-1.5,2.2-2.2c0.3-0.3,0.3-0.7,0-1c-0.3-0.3-0.7-0.3-1,0
			c-0.8,0.7-1.5,1.5-2.3,2.3c-0.1,0.2-0.2,0.5-0.1,0.8C22.8,10.1,23.1,10.2,23.3,10.3z"/>
		<path class="st0" d="M18.1,9.6C18,9.4,18,9.3,17.9,9.2c-0.8-0.8-1.5-1.6-2.3-2.3c-0.3-0.2-0.7-0.2-0.9,0.1c-0.1,0.2-0.2,0.7,0,0.8
			c0.7,0.8,1.5,1.6,2.3,2.3c0.1,0.1,0.5,0.1,0.7,0.1C17.9,10.1,18,9.8,18.1,9.6z"/>
		<path class="st0" d="M19.7,7.7c0,0.5,0,1,0,1.5c0,0.5,0.3,0.8,0.7,0.7c0.4,0,0.6-0.3,0.6-0.7c0-1,0-2,0-3c0-0.5-0.3-0.7-0.7-0.7
			c-0.4,0-0.7,0.2-0.7,0.8C19.7,6.8,19.7,7.3,19.7,7.7z"/>
		<path class="st0" d="M22.7,20.1c0,0.8,0,1.6,0,2.4c0,0.2-0.2,0.5-0.4,0.6c-0.2,0.1-0.5,0-0.7-0.1c-0.1-0.1-0.2-0.4-0.2-0.6
			c0-0.7,0-1.3,0-2c0-0.3-0.1-0.5-0.4-0.5c-0.4,0-0.7,0-1.1,0c-0.3,0-0.4,0.1-0.4,0.4c0,0.7,0,1.3,0,2c0,0.5-0.2,0.8-0.7,0.8
			c-0.4,0-0.7-0.3-0.7-0.8c0-0.7,0-1.3,0-2c0-0.3-0.1-0.4-0.4-0.4c-0.9-0.1-1-0.2-1-1.1c0-1.6,0-3.2,0-4.8c0-1.8,1.4-3.4,3.1-3.6
			c2.1-0.2,3.8,1,4.2,2.9c0.1,0.3,0.1,0.6,0.1,0.9c0,1.5,0,2.9,0,4.4C24.1,19.9,24,20,22.7,20.1z M22.7,16.1c0-0.6,0-1.3,0-1.9
			c0.1-1.4-1.2-2.3-2.2-2.3c-1.4,0-2.5,0.9-2.5,2.2c0,1.4,0,2.8,0,4.3c0,0.3,0.1,0.4,0.4,0.4c1.3,0,2.6,0,4,0c0.3,0,0.4-0.1,0.4-0.4
			C22.7,17.6,22.7,16.9,22.7,16.1z"/>
		<path class="st0" d="M23.3,10.3c-0.2-0.2-0.5-0.3-0.5-0.4c-0.1-0.2-0.1-0.6,0.1-0.8c0.7-0.8,1.5-1.6,2.3-2.3c0.3-0.3,0.7-0.2,1,0
			c0.3,0.3,0.3,0.7,0,1c-0.7,0.7-1.5,1.5-2.2,2.2C23.7,10.2,23.5,10.2,23.3,10.3z"/>
		<path class="st0" d="M18.1,9.6c-0.1,0.2-0.2,0.4-0.4,0.5c-0.2,0.1-0.6,0.1-0.7-0.1c-0.8-0.7-1.6-1.5-2.3-2.3
			c-0.1-0.2-0.1-0.6,0-0.8c0.2-0.3,0.6-0.3,0.9-0.1c0.8,0.7,1.6,1.5,2.3,2.3C18,9.3,18,9.4,18.1,9.6z"/>
		<path class="st0" d="M19.7,7.7c0-0.5,0-1,0-1.5c0-0.5,0.2-0.8,0.7-0.8c0.4,0,0.7,0.2,0.7,0.7c0,1,0,2,0,3c0,0.5-0.3,0.7-0.6,0.7
			c-0.4,0-0.7-0.3-0.7-0.7C19.7,8.8,19.7,8.3,19.7,7.7z"/>
		<path class="st0" d="M22.2,14.2c0,0.2-0.2,0.4-0.5,0.4c-0.3,0-0.6-0.1-0.6-0.5c-0.1-0.5-0.3-0.7-0.8-0.7c-0.3,0-0.5-0.3-0.4-0.6
			c0.1-0.2,0.3-0.4,0.5-0.5C21.3,12.2,22.2,13.1,22.2,14.2z"/>
	</g>
	<g>
		<path class="st0" d="M9.1,21.7c0.2-0.1,0.4-0.2,0.5-0.3c0.8-0.7,1.5-1.5,2.2-2.2c0.3-0.3,0.3-0.7,0-1c-0.3-0.3-0.7-0.3-1,0
			c-0.8,0.7-1.5,1.5-2.3,2.3c-0.1,0.2-0.2,0.5-0.1,0.8C8.6,21.4,8.9,21.5,9.1,21.7z"/>
		<path class="st0" d="M4,21c-0.1-0.2-0.1-0.4-0.2-0.5c-0.8-0.8-1.5-1.6-2.3-2.3C1.2,18,0.8,18,0.6,18.3c-0.1,0.2-0.2,0.7,0,0.8
			c0.7,0.8,1.5,1.6,2.3,2.3c0.1,0.1,0.5,0.1,0.7,0.1C3.7,21.4,3.8,21.2,4,21z"/>
		<path class="st0" d="M5.5,19.1c0,0.5,0,1,0,1.5c0,0.5,0.3,0.8,0.7,0.7c0.4,0,0.6-0.3,0.6-0.7c0-1,0-2,0-3c0-0.5-0.3-0.7-0.7-0.7
			c-0.4,0-0.7,0.2-0.7,0.8C5.5,18.1,5.5,18.6,5.5,19.1z"/>
		<path class="st0" d="M8.6,31.5c0,0.8,0,1.6,0,2.4c0,0.2-0.2,0.5-0.4,0.6c-0.2,0.1-0.5,0-0.7-0.1c-0.1-0.1-0.2-0.4-0.2-0.6
			c0-0.7,0-1.3,0-2c0-0.3-0.1-0.5-0.4-0.5c-0.4,0-0.7,0-1.1,0c-0.3,0-0.4,0.1-0.4,0.4c0,0.7,0,1.3,0,2c0,0.5-0.2,0.8-0.7,0.8
			c-0.4,0-0.7-0.3-0.7-0.8c0-0.7,0-1.3,0-2c0-0.3-0.1-0.4-0.4-0.4c-0.9-0.1-1-0.2-1-1.1c0-1.6,0-3.2,0-4.8c0-1.8,1.4-3.4,3.1-3.6
			c2.1-0.2,3.8,1,4.2,2.9c0.1,0.3,0.1,0.6,0.1,0.9c0,1.5,0,2.9,0,4.4C9.9,31.3,9.9,31.3,8.6,31.5z M8.6,27.5c0-0.6,0-1.3,0-1.9
			c0.1-1.4-1.2-2.3-2.2-2.3c-1.4,0-2.5,0.9-2.5,2.2c0,1.4,0,2.8,0,4.3c0,0.3,0.1,0.4,0.4,0.4c1.3,0,2.6,0,4,0c0.3,0,0.4-0.1,0.4-0.4
			C8.5,28.9,8.6,28.2,8.6,27.5z"/>
		<path class="st0" d="M9.1,21.7c-0.2-0.2-0.5-0.3-0.5-0.4c-0.1-0.2-0.1-0.6,0.1-0.8c0.7-0.8,1.5-1.6,2.3-2.3c0.3-0.3,0.7-0.2,1,0
			c0.3,0.3,0.3,0.7,0,1c-0.7,0.7-1.5,1.5-2.2,2.2C9.5,21.5,9.3,21.6,9.1,21.7z"/>
		<path class="st0" d="M4,21c-0.1,0.2-0.2,0.4-0.4,0.5c-0.2,0.1-0.6,0.1-0.7-0.1c-0.8-0.7-1.6-1.5-2.3-2.3c-0.1-0.2-0.1-0.6,0-0.8
			C0.8,18,1.2,18,1.4,18.2c0.8,0.7,1.6,1.5,2.3,2.3C3.9,20.6,3.9,20.8,4,21z"/>
		<path class="st0" d="M5.5,19.1c0-0.5,0-1,0-1.5c0-0.5,0.2-0.8,0.7-0.8c0.4,0,0.7,0.2,0.7,0.7c0,1,0,2,0,3c0,0.5-0.3,0.7-0.6,0.7
			c-0.4,0-0.7-0.3-0.7-0.7C5.5,20.1,5.5,19.6,5.5,19.1z"/>
		<path class="st0" d="M8,25.5c0,0.2-0.2,0.4-0.5,0.4c-0.3,0-0.6-0.1-0.6-0.5c-0.1-0.5-0.3-0.7-0.8-0.7c-0.3,0-0.5-0.3-0.4-0.6
			C5.8,24,6,23.7,6.2,23.7C7.1,23.6,8.1,24.5,8,25.5z"/>
	</g>
	<g>
		<path class="st0" d="M37.4,21.7c0.2-0.1,0.4-0.2,0.5-0.3c0.8-0.7,1.5-1.5,2.2-2.2c0.3-0.3,0.3-0.7,0-1c-0.3-0.3-0.7-0.3-1,0
			c-0.8,0.7-1.5,1.5-2.3,2.3c-0.1,0.2-0.2,0.5-0.1,0.8C36.9,21.4,37.2,21.5,37.4,21.7z"/>
		<path class="st0" d="M32.2,21c-0.1-0.2-0.1-0.4-0.2-0.5c-0.8-0.8-1.5-1.6-2.3-2.3C29.4,18,29,18,28.8,18.3c-0.1,0.2-0.2,0.7,0,0.8
			c0.7,0.8,1.5,1.6,2.3,2.3c0.1,0.1,0.5,0.1,0.7,0.1C32,21.4,32.1,21.2,32.2,21z"/>
		<path class="st0" d="M33.8,19.1c0,0.5,0,1,0,1.5c0,0.5,0.3,0.8,0.7,0.7c0.4,0,0.6-0.3,0.6-0.7c0-1,0-2,0-3c0-0.5-0.3-0.7-0.7-0.7
			c-0.4,0-0.7,0.2-0.7,0.8C33.8,18.1,33.8,18.6,33.8,19.1z"/>
		<path class="st0" d="M36.8,31.5c0,0.8,0,1.6,0,2.4c0,0.2-0.2,0.5-0.4,0.6c-0.2,0.1-0.5,0-0.7-0.1c-0.1-0.1-0.2-0.4-0.2-0.6
			c0-0.7,0-1.3,0-2c0-0.3-0.1-0.5-0.4-0.5c-0.4,0-0.7,0-1.1,0c-0.3,0-0.4,0.1-0.4,0.4c0,0.7,0,1.3,0,2c0,0.5-0.2,0.8-0.7,0.8
			c-0.4,0-0.7-0.3-0.7-0.8c0-0.7,0-1.3,0-2c0-0.3-0.1-0.4-0.4-0.4c-0.9-0.1-1-0.2-1-1.1c0-1.6,0-3.2,0-4.8c0-1.8,1.4-3.4,3.1-3.6
			c2.1-0.2,3.8,1,4.2,2.9c0.1,0.3,0.1,0.6,0.1,0.9c0,1.5,0,2.9,0,4.4C38.2,31.3,38.1,31.3,36.8,31.5z M36.8,27.5c0-0.6,0-1.3,0-1.9
			c0.1-1.4-1.2-2.3-2.2-2.3c-1.4,0-2.5,0.9-2.5,2.2c0,1.4,0,2.8,0,4.3c0,0.3,0.1,0.4,0.4,0.4c1.3,0,2.6,0,4,0c0.3,0,0.4-0.1,0.4-0.4
			C36.8,28.9,36.8,28.2,36.8,27.5z"/>
		<path class="st0" d="M37.4,21.7c-0.2-0.2-0.5-0.3-0.5-0.4c-0.1-0.2-0.1-0.6,0.1-0.8c0.7-0.8,1.5-1.6,2.3-2.3c0.3-0.3,0.7-0.2,1,0
			c0.3,0.3,0.3,0.7,0,1c-0.7,0.7-1.5,1.5-2.2,2.2C37.8,21.5,37.6,21.6,37.4,21.7z"/>
		<path class="st0" d="M32.2,21c-0.1,0.2-0.2,0.4-0.4,0.5c-0.2,0.1-0.6,0.1-0.7-0.1c-0.8-0.7-1.6-1.5-2.3-2.3
			c-0.1-0.2-0.1-0.6,0-0.8c0.2-0.3,0.6-0.3,0.9-0.1c0.8,0.7,1.6,1.5,2.3,2.3C32.1,20.6,32.1,20.8,32.2,21z"/>
		<path class="st0" d="M33.8,19.1c0-0.5,0-1,0-1.5c0-0.5,0.2-0.8,0.7-0.8c0.4,0,0.7,0.2,0.7,0.7c0,1,0,2,0,3c0,0.5-0.3,0.7-0.6,0.7
			c-0.4,0-0.7-0.3-0.7-0.7C33.8,20.1,33.8,19.6,33.8,19.1z"/>
		<path class="st0" d="M36.3,25.5c0,0.2-0.2,0.4-0.5,0.4c-0.3,0-0.6-0.1-0.6-0.5c-0.1-0.5-0.3-0.7-0.8-0.7c-0.3,0-0.5-0.3-0.4-0.6
			c0.1-0.2,0.3-0.4,0.5-0.5C35.3,23.6,36.3,24.5,36.3,25.5z"/>
	</g>
	<g>
		<path class="st0" d="M36.2,34.6H4.5c-0.3,0-0.5-0.2-0.5-0.5c0-0.3,0.2-0.5,0.5-0.5h31.6c0.3,0,0.5,0.2,0.5,0.5
			C36.6,34.4,36.4,34.6,36.2,34.6z"/>
		<path class="st0" d="M22.2,23.2h-3.6c-0.3,0-0.5-0.2-0.5-0.5s0.2-0.5,0.5-0.5h3.6c0.3,0,0.5,0.2,0.5,0.5S22.5,23.2,22.2,23.2z"/>
		<path class="st0" d="M20.4,34.4c-0.3,0-0.5-0.2-0.5-0.5V23.3c0-0.3,0.2-0.5,0.5-0.5s0.5,0.2,0.5,0.5v10.5
			C20.9,34.2,20.7,34.4,20.4,34.4z"/>
	</g>
</g>
</svg>
