<?xml version="1.0" encoding="utf-8"?>
<!-- Generator: Adobe Illustrator 22.0.1, SVG Export Plug-In . SVG Version: 6.00 Build 0)  -->
<svg version="1.1" id="Capa_1" xmlns="http://www.w3.org/2000/svg" xmlns:xlink="http://www.w3.org/1999/xlink" x="0px" y="0px"
	 viewBox="0 0 500 500" style="enable-background:new 0 0 500 500;" xml:space="preserve">
<style type="text/css">
	.st0{fill:#B600E7;}
	.st1{fill:#131313;}
</style>
<g>
	<path class="st0" d="M496.5,405.5H3.3c-0.2,0-0.3-0.1-0.3-0.3V72.6c0-0.2,0.1-0.3,0.3-0.3h493.2c0.2,0,0.3,0.1,0.3,0.3v332.6
		C496.8,405.4,496.7,405.5,496.5,405.5z"/>
	<g>
		<g>
			<circle class="st1" cx="50.4" cy="126.4" r="22.2"/>
			<circle class="st1" cx="130.2" cy="126.4" r="22.2"/>
			<circle class="st1" cx="210" cy="126.4" r="22.2"/>
			<circle class="st1" cx="289.8" cy="126.4" r="22.2"/>
			<circle class="st1" cx="369.6" cy="126.4" r="22.2"/>
			<circle class="st1" cx="449.4" cy="126.4" r="22.2"/>
		</g>
		<g>
			<circle class="st1" cx="50.4" cy="201.4" r="22.2"/>
			<circle class="st1" cx="130.2" cy="201.4" r="22.2"/>
			<circle class="st1" cx="210" cy="201.4" r="22.2"/>
			<circle class="st1" cx="289.8" cy="201.4" r="22.2"/>
			<circle class="st1" cx="369.6" cy="201.4" r="22.2"/>
			<circle class="st1" cx="449.4" cy="201.4" r="22.2"/>
		</g>
		<g>
			<circle class="st1" cx="50.4" cy="276.5" r="22.2"/>
			<circle class="st1" cx="130.2" cy="276.5" r="22.2"/>
			<circle class="st1" cx="210" cy="276.5" r="22.2"/>
			<circle class="st1" cx="289.8" cy="276.5" r="22.2"/>
			<circle class="st1" cx="369.6" cy="276.5" r="22.2"/>
			<circle class="st1" cx="449.4" cy="276.5" r="22.2"/>
		</g>
		<g>
			
				<ellipse transform="matrix(0.9939 -0.1104 0.1104 0.9939 -38.509 7.7157)" class="st1" cx="50.4" cy="351.5" rx="22.2" ry="22.2"/>
			<circle class="st1" cx="130.2" cy="351.5" r="22.2"/>
			<circle class="st1" cx="210" cy="351.5" r="22.2"/>
			<circle class="st1" cx="289.8" cy="351.5" r="22.2"/>
			<circle class="st1" cx="369.6" cy="351.5" r="22.2"/>
			<circle class="st1" cx="449.4" cy="351.5" r="22.2"/>
		</g>
	</g>
</g>
</svg>
