<?xml version="1.0" encoding="utf-8"?>
<!-- Generator: Adobe Illustrator 22.0.1, SVG Export Plug-In . SVG Version: 6.00 Build 0)  -->
<svg version="1.1" id="Capa_1" xmlns="http://www.w3.org/2000/svg" xmlns:xlink="http://www.w3.org/1999/xlink" x="0px" y="0px"
	 viewBox="0 0 659.7 72.9" style="enable-background:new 0 0 659.7 72.9;" xml:space="preserve">
<style type="text/css">
	.st0{fill:#FFFFFF;}
</style>
<g>
	<path class="st0" d="M0.8,71.1C0.3,70.6,0,70,0,69.3V3.9c0-0.7,0.3-1.4,0.8-1.9s1.1-0.8,1.9-0.8h6.7c0.7,0,1.3,0.3,1.8,0.8
		c0.5,0.5,0.8,1.1,0.8,1.9v65.3c0,0.7-0.3,1.4-0.8,1.9c-0.5,0.5-1.1,0.8-1.8,0.8H2.6C1.9,71.9,1.3,71.6,0.8,71.1z"/>
	<path class="st0" d="M30.5,3.5c0-0.8,0.2-1.4,0.7-1.9c0.5-0.5,1.1-0.7,1.9-0.7h6.9c0.6,0,1.2,0.3,1.7,0.8c0.5,0.5,0.8,1.1,0.8,1.8
		v66.2c0,0.5-0.3,1.1-0.9,1.7c-0.6,0.6-1.1,0.9-1.6,0.9h-6.9c-0.7,0-1.3-0.3-1.8-0.8c-0.5-0.5-0.8-1.1-0.8-1.8V3.5z M47.1,9
		c0-1,0.2-1.7,0.7-2.2c0.5-0.4,1.1-0.7,1.8-0.7c0.5,0,0.9,0.1,1.4,0.3c0.5,0.2,0.8,0.4,1,0.7l30.9,31.3V3.5c0-0.8,0.2-1.4,0.7-1.9
		c0.5-0.5,1.1-0.7,1.9-0.7h6.9c0.6,0,1.2,0.3,1.7,0.8c0.5,0.5,0.8,1.1,0.8,1.8v66.2c0,0.5-0.3,1.1-0.9,1.7c-0.6,0.6-1.1,0.9-1.6,0.9
		h-6.9c-0.7,0-1.3-0.3-1.8-0.8c-0.5-0.5-0.8-1.1-0.8-1.8V55L48.7,21.5c-0.4-0.4-0.8-1-1.1-1.9c-0.3-0.9-0.5-1.5-0.5-1.9V9z"/>
	<path class="st0" d="M118,3.5c0-0.8,0.2-1.4,0.7-1.9c0.5-0.5,1.1-0.7,1.9-0.7h6.9c0.6,0,1.2,0.3,1.7,0.8c0.5,0.5,0.8,1.1,0.8,1.8
		v66.2c0,0.5-0.3,1.1-0.9,1.7c-0.6,0.6-1.1,0.9-1.6,0.9h-6.9c-0.7,0-1.3-0.3-1.8-0.8c-0.5-0.5-0.8-1.1-0.8-1.8V3.5z M134.7,9
		c0-1,0.2-1.7,0.7-2.2c0.5-0.4,1.1-0.7,1.8-0.7c0.5,0,0.9,0.1,1.4,0.3c0.5,0.2,0.8,0.4,1,0.7l30.9,31.3V3.5c0-0.8,0.2-1.4,0.7-1.9
		c0.5-0.5,1.1-0.7,1.9-0.7h6.9c0.6,0,1.2,0.3,1.7,0.8c0.5,0.5,0.8,1.1,0.8,1.8v66.2c0,0.5-0.3,1.1-0.9,1.7c-0.6,0.6-1.1,0.9-1.6,0.9
		h-6.9c-0.7,0-1.3-0.3-1.8-0.8c-0.5-0.5-0.8-1.1-0.8-1.8V55l-34.2-33.6c-0.4-0.4-0.8-1-1.1-1.9c-0.3-0.9-0.5-1.5-0.5-1.9V9z"/>
	<path class="st0" d="M221.2,68c-6.1-3.3-10.8-7.7-14.4-13.3c-3.5-5.6-5.3-11.7-5.3-18.3c0-6.6,1.8-12.7,5.3-18.2
		c3.5-5.6,8.3-10,14.4-13.3C227.3,1.6,233.9,0,241,0c7.1,0,13.7,1.6,19.7,4.9c6,3.3,10.8,7.7,14.3,13.3c3.5,5.6,5.3,11.7,5.3,18.2
		c0,6.6-1.8,12.7-5.3,18.3c-3.5,5.6-8.3,10-14.3,13.3c-6,3.3-12.6,4.9-19.7,4.9C233.9,72.9,227.3,71.3,221.2,68z M254.4,57.9
		c4.1-2.3,7.4-5.3,9.8-9.2c2.4-3.9,3.6-8,3.6-12.6c0-4.6-1.2-8.8-3.6-12.7c-2.4-3.9-5.7-6.9-9.8-9.2c-4.1-2.3-8.7-3.4-13.6-3.4
		c-4.9,0-9.5,1.1-13.7,3.4c-4.2,2.3-7.5,5.3-9.9,9.2c-2.4,3.9-3.6,8.1-3.6,12.7c0,4.5,1.2,8.7,3.6,12.6c2.4,3.9,5.7,6.9,9.9,9.2
		c4.2,2.3,8.7,3.4,13.7,3.4C245.7,61.3,250.2,60.2,254.4,57.9z"/>
	<path class="st0" d="M358.5,1.8c0.5,0.5,0.8,1.1,0.8,1.8c0,0.5-0.1,0.9-0.2,1.1l-29.8,65.4c-0.2,0.5-0.5,1-1,1.3
		c-0.5,0.3-1,0.5-1.6,0.5h-4.9c-0.5,0-1-0.2-1.5-0.5c-0.5-0.3-0.8-0.7-1-1.3L289.3,5c-0.1-0.3-0.2-0.7-0.2-1.2c0-0.8,0.3-1.5,0.8-2
		c0.5-0.5,1.2-0.8,2-0.8h6.6c0.6,0,1.1,0.2,1.6,0.5c0.5,0.3,0.8,0.7,1,1.3l23.1,48.7l22.7-48.7c0.2-0.5,0.5-1,1-1.3
		c0.5-0.3,1-0.5,1.5-0.5h7.3C357.4,1,358,1.3,358.5,1.8z"/>
	<path class="st0" d="M386.5,5c0.5-1.4,1.2-2.4,2.3-3s2-0.8,2.7-0.8h10.6c1.8,0,3.1,0.3,3.8,0.8c0.7,0.5,1.3,1.5,1.7,3l23.2,64.8
		c0.1,0.1,0.1,0.4,0.1,0.7c0,0.3-0.1,0.6-0.4,0.9c-0.2,0.2-0.6,0.4-1,0.4h-7.5c-1.3,0-2.2-0.2-2.7-0.5c-0.5-0.3-0.9-0.8-1.1-1.5
		l-3.5-10H393c-1.2,0-2-0.4-2.4-1.2c-0.4-0.8-0.6-1.6-0.6-2.4V52c0-2,1-3,3-3h17.9l-12.6-35.1c-0.2-0.5-0.6-0.8-1.1-0.8
		c-0.6,0-1,0.3-1.2,0.8l-20.5,56c-0.2,1.3-1.3,1.9-3.3,1.9h-7.6c-0.5,0-0.9-0.2-1.2-0.6c-0.3-0.4-0.3-0.8-0.1-1.4L386.5,5z"/>
	<g>
		<path class="st0" d="M461.1,71.2c-0.4-0.4-0.7-0.9-0.7-1.5V3.7c0-0.6,0.2-1.1,0.7-1.5c0.4-0.4,0.9-0.6,1.5-0.6h7
			c0.5,0,1,0.2,1.4,0.6c0.4,0.4,0.6,0.9,0.6,1.5v57h31.1c0.5,0,0.9,0.2,1.2,0.5c0.3,0.3,0.5,0.7,0.5,1.2v7.8c0,0.5-0.2,0.9-0.5,1.2
			c-0.3,0.3-0.7,0.5-1.2,0.5h-40.1C462.1,71.8,461.6,71.6,461.1,71.2z"/>
		<path class="st0" d="M526.1,71.6c-0.4-0.4-0.6-0.9-0.6-1.4V3.6c0-0.5,0.2-1,0.6-1.4c0.4-0.4,0.9-0.6,1.4-0.6h44.7
			c0.6,0,1.1,0.2,1.6,0.6c0.4,0.4,0.7,0.9,0.7,1.4v7c0,0.5-0.2,1-0.7,1.4c-0.4,0.4-1,0.6-1.6,0.6h-35.6v48.5h35.6
			c0.6,0,1.1,0.2,1.6,0.6c0.4,0.4,0.7,0.9,0.7,1.4v7c0,0.5-0.2,1-0.7,1.4c-0.4,0.4-1,0.6-1.6,0.6h-44.7
			C527,72.2,526.5,72,526.1,71.6z M542.8,41.3c-0.3-0.3-0.5-0.7-0.5-1.1v-7.3c0-0.5,0.2-0.9,0.5-1.2c0.3-0.3,0.7-0.5,1.1-0.5h26.3
			c0.4,0,0.7,0.2,1,0.5c0.3,0.3,0.4,0.7,0.4,1.2v7.3c0,0.4-0.1,0.8-0.4,1.1c-0.3,0.3-0.6,0.5-1,0.5h-26.3
			C543.4,41.8,543.1,41.6,542.8,41.3z"/>
		<path class="st0" d="M619.9,72.3c-0.6-0.4-1-1.2-1.3-2.4c-0.1-0.3-0.1-0.9-0.1-1.9l0.1-3.2c0-0.4,0.2-0.9,0.6-1.5
			c0.4-0.6,1.2-0.9,2.4-1c7.1-0.2,12.6-1.8,16.5-4.7c3.9-2.9,6.6-6,7.9-9.3c1.3-3.3,2.1-6.2,2.2-8.6c0.1-0.8,0.1-1.9,0.1-3.3
			c0-9.8-2.8-16.6-8.5-20.3c-5.7-3.7-12.3-5.6-19.8-5.6c-2.2,0-4.1,0.1-5.9,0.3c-1.8,0.2-3.1,0.4-3.8,0.6v49.8v8.8
			c0,0.3-0.1,0.8-0.4,1.4c-0.3,0.6-0.8,0.9-1.6,1c-0.8,0.1-1.9,0.1-3.2,0.1c-0.8,0-1.5,0-2-0.1c-0.5,0-0.8-0.1-1-0.1
			c-1.6,0-2.4-1-2.4-3V4.9c0-0.4,0.1-0.8,0.4-1.2c0.3-0.4,0.6-0.6,1-0.8c0.5-0.1,1.6-0.4,3.2-0.7c1.7-0.3,3.9-0.7,6.7-1
			c2.8-0.3,5.7-0.5,8.7-0.5c10.9,0,20.3,2.6,28.1,7.9c7.8,5.2,11.7,14.6,11.7,28.2c0,1.5,0,2.7-0.1,3.5c0,2.5-0.6,6-1.9,10.5
			c-1.3,4.5-4.7,9.2-10.4,13.9c-5.6,4.8-14.2,7.4-25.5,8C621.1,72.9,620.5,72.7,619.9,72.3z"/>
	</g>
</g>
</svg>
