<?xml version="1.0" encoding="utf-8"?>
<!-- Generator: Adobe Illustrator 21.1.0, SVG Export Plug-In . SVG Version: 6.00 Build 0)  -->
<svg version="1.1" id="Capa_1" xmlns="http://www.w3.org/2000/svg" xmlns:xlink="http://www.w3.org/1999/xlink" x="0px" y="0px"
	 viewBox="0 0 512 512" style="enable-background:new 0 0 512 512;" xml:space="preserve">
<style type="text/css">
	.st0{display:none;}
	.st1{display:inline;}
	.st2{fill:#FFFFFF;stroke:#FFFFFF;stroke-width:0.1;stroke-miterlimit:10;}
	.st3{fill:none;stroke:#FFFFFF;stroke-width:0.1;stroke-miterlimit:10;}
	.st4{fill:#FFFFFF;stroke:#FFFFFF;stroke-width:10;stroke-miterlimit:10;}
	.st5{fill:#FFFFFF;}
</style>
<g class="st0">
	<g class="st1">
		<rect x="0.1" y="0.1" class="st2" width="200" height="200"/>
		<line class="st3" x1="0.1" y1="496" x2="512" y2="496"/>
		<line class="st3" x1="0.1" y1="480" x2="512" y2="480"/>
		<line class="st3" x1="0.1" y1="464" x2="512" y2="464"/>
		<line class="st3" x1="0.1" y1="448" x2="512" y2="448"/>
		<line class="st3" x1="0.1" y1="432" x2="512" y2="432"/>
		<line class="st3" x1="0.1" y1="416" x2="512" y2="416"/>
		<line class="st3" x1="0.1" y1="400" x2="512" y2="400"/>
		<line class="st3" x1="0.1" y1="384" x2="512" y2="384"/>
		<line class="st3" x1="0.1" y1="368" x2="512" y2="368"/>
		<line class="st3" x1="0.1" y1="352" x2="512" y2="352"/>
		<line class="st3" x1="0.1" y1="336" x2="512" y2="336"/>
		<line class="st3" x1="0.1" y1="320" x2="512" y2="320"/>
		<line class="st3" x1="0.1" y1="304" x2="512" y2="304"/>
		<line class="st3" x1="0.1" y1="288" x2="512" y2="288"/>
		<line class="st3" x1="0.1" y1="272" x2="512" y2="272"/>
		<line class="st3" x1="0.1" y1="256" x2="512" y2="256"/>
		<line class="st3" x1="0.1" y1="240.1" x2="512" y2="240.1"/>
		<line class="st3" x1="0.1" y1="224.1" x2="512" y2="224.1"/>
		<line class="st3" x1="0.1" y1="208.1" x2="512" y2="208.1"/>
		<line class="st3" x1="0.1" y1="192.1" x2="512" y2="192.1"/>
		<line class="st3" x1="0.1" y1="176.1" x2="512" y2="176.1"/>
		<line class="st3" x1="0.1" y1="160.1" x2="512" y2="160.1"/>
		<line class="st3" x1="0.1" y1="144.1" x2="512" y2="144.1"/>
		<line class="st3" x1="0.1" y1="128.1" x2="512" y2="128.1"/>
		<line class="st3" x1="0.1" y1="112.1" x2="512" y2="112.1"/>
		<line class="st3" x1="0.1" y1="96.1" x2="512" y2="96.1"/>
		<line class="st3" x1="0.1" y1="80.1" x2="512" y2="80.1"/>
		<line class="st3" x1="0.1" y1="64.1" x2="512" y2="64.1"/>
		<line class="st3" x1="0.1" y1="48" x2="512" y2="48"/>
		<line class="st3" x1="0.1" y1="32" x2="512" y2="32"/>
		<line class="st3" x1="0.1" y1="16" x2="512" y2="16"/>
		<line class="st3" x1="496" y1="0.1" x2="496" y2="512"/>
		<line class="st3" x1="480" y1="0.1" x2="480" y2="512"/>
		<line class="st3" x1="464" y1="0.1" x2="464" y2="512"/>
		<line class="st3" x1="448" y1="0.1" x2="448" y2="512"/>
		<line class="st3" x1="432" y1="0.1" x2="432" y2="512"/>
		<line class="st3" x1="416" y1="0.1" x2="416" y2="512"/>
		<line class="st3" x1="400" y1="0.1" x2="400" y2="512"/>
		<line class="st3" x1="384" y1="0.1" x2="384" y2="512"/>
		<line class="st3" x1="368" y1="0.1" x2="368" y2="512"/>
		<line class="st3" x1="352" y1="0.1" x2="352" y2="512"/>
		<line class="st3" x1="336" y1="0.1" x2="336" y2="512"/>
		<line class="st3" x1="320" y1="0.1" x2="320" y2="512"/>
		<line class="st3" x1="304" y1="0.1" x2="304" y2="512"/>
		<line class="st3" x1="288" y1="0.1" x2="288" y2="512"/>
		<line class="st3" x1="272" y1="0.1" x2="272" y2="512"/>
		<line class="st3" x1="256" y1="0.1" x2="256" y2="512"/>
		<line class="st3" x1="240.1" y1="0.1" x2="240.1" y2="512"/>
		<line class="st3" x1="224.1" y1="0.1" x2="224.1" y2="512"/>
		<line class="st3" x1="208.1" y1="0.1" x2="208.1" y2="512"/>
		<line class="st3" x1="192.1" y1="0.1" x2="192.1" y2="512"/>
		<line class="st3" x1="176.1" y1="0.1" x2="176.1" y2="512"/>
		<line class="st3" x1="160.1" y1="0.1" x2="160.1" y2="512"/>
		<line class="st3" x1="144.1" y1="0.1" x2="144.1" y2="512"/>
		<line class="st3" x1="128.1" y1="0.1" x2="128.1" y2="512"/>
		<line class="st3" x1="112.1" y1="0.1" x2="112.1" y2="512"/>
		<line class="st3" x1="96.1" y1="0.1" x2="96.1" y2="512"/>
		<line class="st3" x1="80.1" y1="0.1" x2="80.1" y2="512"/>
		<line class="st3" x1="64.1" y1="0.1" x2="64.1" y2="512"/>
		<line class="st3" x1="48" y1="0.1" x2="48" y2="512"/>
		<line class="st3" x1="32" y1="0.1" x2="32" y2="512"/>
		<line class="st3" x1="16" y1="0.1" x2="16" y2="512"/>
	</g>
</g>
<g>
	<g>
		<path class="st4" d="M79.3,432.8C32,385.6,6.1,322.8,6.1,256S32,126.5,79.3,79.3S189.3,6.1,256,6.1s129.6,26,176.8,73.2
			S506,189.3,506,256s-26,129.6-73.2,176.8S322.8,506,256,506S126.5,480,79.3,432.8z M16,256c0,132.3,107.7,240,240,240
			s240-107.7,240-240S388.3,16,256,16S16,123.8,16,256z"/>
		<g>
			<polygon class="st5" points="365.4,255.1 176.7,364 217.3,256.3 176.7,146.1 			"/>
		</g>
	</g>
</g>
</svg>
