<?xml version="1.0" encoding="utf-8"?>
<!-- Generator: Adobe Illustrator 22.0.1, SVG Export Plug-In . SVG Version: 6.00 Build 0)  -->
<svg version="1.1"
	 id="Capa_1" xmlns:cc="http://creativecommons.org/ns#" xmlns:dc="http://purl.org/dc/elements/1.1/" xmlns:inkscape="http://www.inkscape.org/namespaces/inkscape" xmlns:rdf="http://www.w3.org/1999/02/22-rdf-syntax-ns#" xmlns:sodipodi="http://sodipodi.sourceforge.net/DTD/sodipodi-0.dtd" xmlns:svg="http://www.w3.org/2000/svg"
	 xmlns="http://www.w3.org/2000/svg" xmlns:xlink="http://www.w3.org/1999/xlink" x="0px" y="0px" viewBox="0 0 136 164"
	 style="enable-background:new 0 0 136 164;" xml:space="preserve">
<style type="text/css">
	.st0{fill:#FF0000;}
</style>
<g transform="translate(0,-952.36218)">
	<path class="st0" d="M136,1033.9c-0.1-0.9-0.4-1.8-0.8-2.6l-44-76c-1.1-1.9-3-3-5.2-3H6c-3.3,0-6,2.7-6,6c0,1,0.3,2.1,0.8,3
		l42.3,73l-42.3,73c-1.7,2.9-0.7,6.5,2.2,8.2c0.9,0.5,1.9,0.8,3,0.8h80c2.1,0,4.1-1.1,5.2-3l44-76
		C135.8,1036.3,136.1,1035.1,136,1033.9z M123.1,1034.4l-40.5,70H16.4l38.8-67c1.1-1.9,1.1-4.1,0-6l-38.8-67h66.2L123.1,1034.4z"/>
</g>
</svg>
