<svg width='200' height='200' fill="#131313" xmlns="http://www.w3.org/2000/svg" data-name="Layer 1" viewBox="0 0 128 128" x="0px" y="0px"><title>Artboard 6</title><path d="M83.37,4A63,63,0,1,0,64,127c1.83,0,3.68-.08,5.54-.24a63.06,63.06,0,0,0,57.26-68.24,5.14,5.14,0,0,0-10.25.9A52.66,52.66,0,1,1,80.2,13.83,5.14,5.14,0,1,0,83.37,4Z"></path><path d="M25.43,61a5.14,5.14,0,0,0,0,6C26.12,68,42.61,90.68,64,90.68S101.88,68,102.57,67a5.14,5.14,0,0,0,0-6C101.88,60,85.39,37.33,64,37.33S26.12,60,25.43,61Zm66.37,3a67.27,67.27,0,0,1-7,7c-5,4.27-12.62,9.37-20.79,9.37S48.19,75.3,43.21,71a67.26,67.26,0,0,1-7-7,67.26,67.26,0,0,1,7-7c5-4.27,12.62-9.37,20.79-9.37S79.81,52.71,84.79,57A67.27,67.27,0,0,1,91.79,64Z"></path><path d="M61.43,57.71v3.72H57.71a2.57,2.57,0,1,0,0,5.14h3.72v3.72a2.57,2.57,0,0,0,5.14,0V66.57h3.72a2.57,2.57,0,1,0,0-5.14H66.57V57.71a2.57,2.57,0,0,0-5.14,0Z"></path></svg>