<?xml version="1.0" encoding="utf-8"?>
<!-- Generator: Adobe Illustrator 21.1.0, SVG Export Plug-In . SVG Version: 6.00 Build 0)  -->
<svg version="1.1" id="Capa_1" xmlns="http://www.w3.org/2000/svg" xmlns:xlink="http://www.w3.org/1999/xlink" x="0px" y="0px"
	 viewBox="0 0 176.2 147.4" style="enable-background:new 0 0 176.2 147.4;" xml:space="preserve">
<style type="text/css">
	.st0{fill:#FFFFFF;}
</style>
<path class="st0" d="M126.7,8.2c-0.2-1.1-0.9-2-2-2.4C118.4,3.5,110,1.2,101,1.2c-7.1,0-14.5,1.4-21.5,5.5l0,0
	c-3.5,2-6.3,4.6-8.4,7.5c-3.2,4.3-4.8,9.4-5.8,14.4c-0.8,4.1-1.1,8.3-1.2,12.4c-1.8,0-3.9,0.1-5.7,0.1c-1.6,0-3.1,0-4.2,0
	c-0.5,0-1,0-1.3,0c-0.3,0-0.5,0-0.5,0c-0.8,0-1.6,0.3-2.2,0.9c-0.6,0.6-0.9,1.4-0.9,2.2l0.1,20.4c0,1.7,1.4,3.2,3.1,3.2
	c0,0,0.8,0,2.1,0c3,0,8.6-0.1,12.9,0c0.6,14,0.8,35.1,0.8,51.4c0,6.9,0,12.9-0.1,17.2c0,2.2,0,3.9,0,5.1c0,1.2,0,1.8,0,1.8
	c0,0.8,0.3,1.6,0.9,2.2c0.6,0.6,1.4,0.9,2.2,0.9l27.3-0.1c0.8,0,1.6-0.3,2.2-0.9c0.6-0.6,0.9-1.4,0.9-2.2c0,0-0.1-16.8-0.3-35
	c-0.1-15.6-0.3-32.2-0.4-39.9c1.7,0,3.7,0,5.6,0c2.2,0,4.4,0,6,0c0.8,0,1.5,0,1.9,0c0.5,0,0.7,0,0.7,0c0.8,0,1.6-0.3,2.2-0.9
	c0.6-0.6,0.9-1.4,0.9-2.2l0-18.9c0-0.8-0.3-1.9-0.9-2.5c-0.6-0.6-1.4-1.2-2.2-1.2c0,0-0.4,0-1,0c-0.7,0-1.6,0.3-2.7,0.3
	c-3.4,0-8.6,0.1-12.7,0.1c0.1-2.1,0.3-3.9,0.6-5.5c0.3-1.5,0.7-2.8,1.2-3.8c0.4-0.8,0.8-1.4,1.2-1.9c0.7-0.8,1.4-1.3,2.3-1.7
	c0.9-0.4,2.1-0.6,3.5-0.6c2.6,0,6.2,0.8,10.7,2.5c0,0,0.1,0,0.1,0c0,0,0.1,0,0.1,0c0.1,0,0.1,0,0.2,0c0.1,0,0.2,0,0.3,0.1
	c0.1,0,0.2,0,0.3,0c0.1,0,0.2,0,0.3,0c0.1,0,0.2,0,0.3,0c0.1,0,0.2,0,0.3-0.1c0.1,0,0.2-0.1,0.3-0.1c0.1,0,0.2-0.1,0.3-0.1
	c0.1,0,0.2-0.1,0.3-0.1c0.1-0.1,0.2-0.1,0.3-0.2c0.1-0.1,0.1-0.1,0.2-0.2c0.1-0.1,0.2-0.1,0.2-0.2c0.1-0.1,0.1-0.2,0.2-0.2
	c0.1-0.1,0.1-0.2,0.2-0.3c0.1-0.1,0.1-0.2,0.1-0.3c0-0.1,0.1-0.1,0.1-0.2c0,0,0-0.1,0-0.1c0,0,0-0.1,0-0.1c0.6-2,1.7-5.5,2.6-9.1
	c0.5-1.8,0.9-3.7,1.2-5.5c0.3-1.8,0.5-3.5,0.5-5.1C126.9,9.6,126.8,8.9,126.7,8.2z M100.9,24.8c-1.5,0.8-2.9,1.9-3.9,3.2
	c-1.6,2-2.6,4.5-3.3,7.3c-0.6,2.8-0.9,6-0.9,9.6c0,0.4,0,0.7,0,1.1c0,1.6,1.3,2.5,3,2.6c4.4,0.1,11.5-0.3,15.9-0.3
	c0.2,0,0.4,0,0.7,0l0,13.2c-1.6,0-3.6,0.2-5.7,0.2c-3.3,0-6.7,0.1-8.8,0.2c-1.7,0.1-2.9,1.5-2.9,3.2c0.1,5.3,0.3,24.8,0.4,42.9
	c0.1,9.1,0.2,17.8,0.2,24.3c0,3.1,0.1,5.7,0.1,7.6l-21.1,0.1c0-4.1,0.1-11.8,0.1-21.1c0-17.5-0.2-40.5-0.9-54.6
	c-0.1-1.6-1.4-2.9-3-2.9c-4.2-0.1-11.1-0.2-15.1-0.2l-0.1-14.1c0.9,0,1.9,0,2.9,0c3,0,6.5,0,8.9-0.2c1.6-0.1,2.9-1.4,2.9-3
	c0.2-6.5,0.5-13,2.3-18.6c0.9-2.8,2-5.3,3.7-7.6c1.6-2.2,3.7-4.2,6.5-5.8l0,0c5.8-3.4,12.1-4.6,18.4-4.7c7.1,0,14.1,1.7,19.7,3.6
	c0,1-0.2,2.1-0.4,3.4c-0.4,2.4-1.1,5.1-1.8,7.6c-0.3,1.1-0.6,2.2-0.9,3.2c-3.6-1.2-6.9-1.8-9.8-1.8
	C105.3,23.3,102.9,23.8,100.9,24.8z"/>
</svg>
