<?xml version="1.0" encoding="utf-8"?>
<!-- Generator: Adobe Illustrator 21.1.0, SVG Export Plug-In . SVG Version: 6.00 Build 0)  -->
<svg version="1.1" id="Capa_1" xmlns="http://www.w3.org/2000/svg" xmlns:xlink="http://www.w3.org/1999/xlink" x="0px" y="0px"
	 viewBox="0 0 176.2 147.4" style="enable-background:new 0 0 176.2 147.4;" xml:space="preserve">
<style type="text/css">
	.st0{fill:#FFFFFF;}
</style>
<g>
	<path class="st0" d="M171.5,16.9c1.3-4.4-0.2-9.2-3.8-12.1c-2.1-1.6-4.5-2.5-7.1-2.5c-2,0-4,0.5-5.8,1.6c-3.6,2.1-7.3,3.8-11.1,4.9
		C136.2,3.2,127.1,0,117.6,0C95.9,0,78,16.2,75.2,37.1c-17.3-3.7-33-13.2-44.3-27.1c-2.2-2.7-5.4-4.2-8.8-4.2c-0.3,0-0.6,0-0.9,0
		c-3.7,0.3-7,2.4-8.9,5.6c-3.8,6.5-5.8,14-5.8,21.5C6.4,38.1,7.3,43,9,47.7c-1.8,2.1-2.9,4.7-2.9,7.5c0,11.2,4.2,21.6,11.3,29.3
		c-0.4,1.9-0.4,4,0.3,5.9c2.4,7.7,6.9,14.2,12.7,19.3c-3.8,0.9-7.6,1.3-11.6,1.3c-2,0-4.1-0.1-6.2-0.4c-0.4-0.1-0.9-0.1-1.3-0.1
		c-4.7,0-9,3-10.7,7.5c-1.8,5,0.1,10.5,4.5,13.4c16.3,10.4,35.1,15.9,54.4,15.9c62.6,0,100.3-50.4,100.9-99.6
		c5.1-4.3,9.6-9.3,13.4-14.9c1.4-1.9,2.3-4.3,2.3-6.8C176.2,22.3,174.3,18.9,171.5,16.9z M149.1,42.4c0.1,1.3,0.1,2.7,0.1,4.1
		c0,41.6-31.7,89.6-89.6,89.6c-17.8,0-34.3-5.2-48.3-14.1c2.5,0.3,5,0.4,7.5,0.4c14.8,0,28.3-5,39.1-13.5
		c-13.8-0.2-25.4-9.4-29.4-21.9c1.9,0.4,3.9,0.6,5.9,0.6c2.9,0,5.7-0.4,8.3-1.1c-14.4-2.9-25.3-15.6-25.3-30.9c0-0.1,0-0.3,0-0.4
		c4.2,2.4,9.1,3.8,14.3,3.9c-8.4-5.6-14-15.3-14-26.2c0-5.8,1.6-11.2,4.3-15.8C37.5,36.1,60.7,48.7,86.9,50
		c-0.5-2.3-0.8-4.7-0.8-7.2c0-17.4,14.1-31.5,31.5-31.5c9.1,0,17.3,3.8,23,9.9c7.2-1.4,13.9-4,20-7.6c-2.4,7.3-7.4,13.5-13.8,17.4
		c6.4-0.8,12.4-2.4,18.1-5C160.6,32.4,155.3,38,149.1,42.4z"/>
</g>
</svg>
