<?xml version="1.0" encoding="utf-8"?>
<!-- Generator: Adobe Illustrator 21.1.0, SVG Export Plug-In . SVG Version: 6.00 Build 0)  -->
<svg version="1.1" id="Capa_1" xmlns="http://www.w3.org/2000/svg" xmlns:xlink="http://www.w3.org/1999/xlink" x="0px" y="0px"
	 viewBox="0 0 74.9 64" style="enable-background:new 0 0 74.9 64;" xml:space="preserve">
<style type="text/css">
	.st0{fill:#FF1B2B;}
</style>
<g>
	<path class="st0" d="M62.3,0H24.9C22.7,0,21,1.7,21,3.9v8.7c-7.1,2-12.3,8.6-12.3,16.3S13.9,43.1,21,45.2v14.9
		c0,2.1,1.7,3.9,3.9,3.9h30.6c0.4,0,0.7-0.1,1-0.4l9.3-9.3c0.3-0.3,0.4-0.6,0.4-1V3.9C66.1,1.7,64.4,0,62.3,0z M24.9,2.7h37.4
		c0.6,0,1.1,0.5,1.1,1.1V8H23.7V3.9C23.7,3.2,24.2,2.7,24.9,2.7z M11.4,28.9c0-7.8,6.4-14.2,14.2-14.2S39.9,21,39.9,28.9
		s-6.4,14.2-14.2,14.2S11.4,36.7,11.4,28.9z M23.7,60.1V45.7c0.6,0.1,1.3,0.1,1.9,0.1c5.1,0,9.7-2.3,12.8-5.8h8.4
		c0.8,0,1.4-0.6,1.4-1.4s-0.6-1.4-1.4-1.4h-6.4c1.2-2.1,2-4.4,2.2-6.9h4.3c0.8,0,1.4-0.6,1.4-1.4c0-0.8-0.6-1.4-1.4-1.4h-4.2
		c-0.2-2.5-0.9-4.8-2.1-6.9h6.3c0.8,0,1.4-0.6,1.4-1.4c0-0.8-0.6-1.4-1.4-1.4h-8.2c-3.1-3.7-7.8-6-13-6c-0.7,0-1.3,0-1.9,0.1v-1.3
		h39.7v41.2h-5.5c-2.1,0-3.9,1.7-3.9,3.9v5.5H24.9C24.2,61.3,23.7,60.8,23.7,60.1z M56.8,59.3v-3.5c0-0.6,0.5-1.1,1.1-1.1h3.5
		L56.8,59.3z"/>
	<path class="st0" d="M52.2,20.7h4.5c0.8,0,1.4-0.6,1.4-1.4c0-0.8-0.6-1.4-1.4-1.4h-4.5c-0.8,0-1.4,0.6-1.4,1.4
		C50.8,20.1,51.4,20.7,52.2,20.7z"/>
	<path class="st0" d="M52.2,30.3h4.5c0.8,0,1.4-0.6,1.4-1.4c0-0.8-0.6-1.4-1.4-1.4h-4.5c-0.8,0-1.4,0.6-1.4,1.4
		C50.8,29.7,51.4,30.3,52.2,30.3z"/>
	<path class="st0" d="M52.2,40h4.5c0.8,0,1.4-0.6,1.4-1.4s-0.6-1.4-1.4-1.4h-4.5c-0.8,0-1.4,0.6-1.4,1.4S51.4,40,52.2,40z"/>
	<path class="st0" d="M56.7,49.7c0.8,0,1.4-0.6,1.4-1.4c0-0.8-0.6-1.4-1.4-1.4H43.9c-0.8,0-1.4,0.6-1.4,1.4c0,0.8,0.6,1.4,1.4,1.4
		H56.7z"/>
	<path class="st0" d="M36.3,22l-1.7-1.7c-0.4-0.4-1-0.7-1.7-0.7c-0.6,0-1.2,0.2-1.7,0.7l-8.7,8.7l-2.4-2.4c-0.4-0.4-1-0.7-1.7-0.7
		c-0.6,0-1.2,0.2-1.7,0.7l-1.7,1.7c-0.9,0.9-0.9,2.4,0,3.4l5.8,5.8c0.4,0.4,1,0.7,1.7,0.7h0c0.6,0,1.2-0.2,1.7-0.7l12.1-12.1
		C37.2,24.4,37.2,22.9,36.3,22z M22.5,35.2L17.2,30l1.2-1.2l3.1,3.1c0.5,0.5,1.4,0.5,1.9,0l9.5-9.5l1.2,1.2L22.5,35.2z"/>
</g>
</svg>
